<?xml version="1.0" encoding="utf-8"?>
<!-- Generator: Adobe Illustrator 25.0.0, SVG Export Plug-In . SVG Version: 6.00 Build 0)  -->
<svg version="1.1" id="Layer_1" xmlns="http://www.w3.org/2000/svg" xmlns:xlink="http://www.w3.org/1999/xlink" x="0px" y="0px"
	 viewBox="0 0 1920 1080" style="enable-background:new 0 0 1920 1080;" xml:space="preserve">
<style type="text/css">
	.st0{fill:#F7FDFD;}
	.st1{fill:#063851;}
	.st2{fill:#06364E;}
	.st3{fill:#20BBE3;}
	.st4{fill:#0B85CC;}
	.st5{fill:#F7FCFA;}
	.st6{fill:#04F630;}
	.st7{fill:#0ED534;}
	.st8{fill:#06E531;}
	.st9{fill:#05ED33;}
	.st10{fill:#05CF35;}
	.st11{fill:#09C138;}
	.st12{fill:#04DA31;}
	.st13{fill:#05C538;}
	.st14{fill:#24D544;}
</style>
<g>
	<path class="st0" d="M1096.1,752.3c0,0.3,0,0.6,0,0.9c-8.7,0-17.5,0-26.2,0c0-0.3,0-0.6,0-0.9
		C1078.6,752.3,1087.3,752.3,1096.1,752.3z"/>
	<path class="st1" d="M890.6,645.2c-13.1-20.7-21.8-43.3-27.2-67.1c-15.4-67.5-0.5-128.9,40.6-183.4c33-43.7,77.7-70.6,131.5-81.6
		c55.3-11.3,108.1-3.4,157.5,23.7c39.7,21.7,70,53.1,90.5,93.7c12.6,24.9,20.9,51.1,23.7,79c0.2,2.2,0.2,4.4,0.3,6.5
		c-1.4,8.7-1.4,17.5,0,26.2c-1.3,25.9-7.5,50.6-17.7,74.4c-12.4,28.9-30,54.3-52.6,76.1c-5.8,5.6-11.6,11.6-19.1,15.2
		c-3.8-4.8-5.2-9.9-1.4-15.4c1.7-2.4,3.7-4.6,5.7-6.7c2-2.1,2.2-4.5,1.2-6.9c-1-2.4-3.2-2.6-5.5-2.4c4.6-5.8,11-10,14.9-16.4
		c6.5-6.5,12.5-13.4,16.2-22c1.1-0.1,1.8-0.6,2.3-1.6c8.8-14.6,16.8-29.5,21.7-46c3.2-8.4,5.5-17.1,6.8-26.1
		c3.8-19.3,4.8-38.8,2.2-58.3c-1.1-8.4-2.2-16.8-5.7-24.7l0.1,0c-0.1-2.6-0.6-5-2-7.3c0-0.3,0-0.5-0.2-0.7
		c-1.1-3.5-1.5-7.2-3.9-10.1v0c-0.5-2.9-1-5.7-3.1-8c0-0.8-0.1-1.6-0.9-2c-0.4-2.6-1.3-5-3.1-7.1l0,0c0-0.8-0.2-1.6-1-2.1l0,0
		c-0.3-1.6-0.8-3-2.1-4.1l0,0c-0.8-2.7-1.7-5.3-4-7.1l0,0c-0.2-1.6-0.8-3-2.2-3.9l0,0c-0.3-0.4-0.6-0.7-0.9-1.1l0,0
		c0-0.9-0.2-1.6-1.1-2l0,0c-0.1-1.4-0.7-2.4-2-3.1l0,0c-0.1-1.4-0.8-2.4-2.1-3l0,0c-0.2-1.3-0.8-2.4-2.1-3l0,0
		c-0.3-0.4-0.6-0.7-1-1.1l0,0c-0.2-1.4-0.8-2.4-2.1-3l0,0c-0.3-0.4-0.6-0.7-0.9-1.1l0.1,0c-0.2-1.3-0.8-2.4-2.1-3l0,0
		c-0.3-0.4-0.7-0.7-1-1.1l0,0c-0.3-0.4-0.7-0.7-1-1.1l0,0c-0.3-0.4-0.7-0.8-1-1.2c-0.2-0.3-0.5-0.6-0.7-0.8
		c-0.2-0.8-0.5-1.6-1.4-1.9c-0.3-0.3-0.6-0.7-0.9-1c-0.4-0.4-0.7-0.7-1.1-1.1l0,0c-0.3-0.4-0.7-0.7-1-1.1l0,0
		c-0.3-0.4-0.7-0.7-1-1.1l0,0c-0.3-0.4-0.7-0.7-1-1.1l0.1,0.1c-0.4-0.4-0.7-0.7-1.1-1.1l0,0c-0.3-0.4-0.7-0.7-1-1.1l0,0.1
		c-0.3-0.3-0.7-0.7-1-1l0,0c-0.3-0.3-0.7-0.7-1-1l0,0c-10.2-11.4-22.1-20.5-35.2-28.4l0,0c-0.6-1.2-1.7-1.9-3-2l0,0
		c-2.9-2.8-6.5-4.4-10.1-6l0,0c-1-1.3-2.4-1.8-4-2l0,0c-1-1.3-2.4-1.8-4-2v0c-2.7-2.1-5.8-3.3-9.1-4.1l0,0c-1.4-1.3-3.2-1.7-5.1-2
		c-0.2-0.2-0.3-0.2-0.6-0.1c-1.6-1.3-3.4-2-5.4-2l0,0c-10-4.2-20.4-6.8-31.2-8.2l0,0.1c-6.8-2.3-14-2.3-21-3.2
		c-14.3-1.8-28.5-1.3-42.5,0.7c-20.8,3-40.9,8.8-59.8,18c-21.4,10.4-41.2,23-57,41.1c-1.2,1.1-2.5,2.1-3.7,3.3
		c-9.4,9.8-16.5,21.3-23.7,32.8c-0.3,0.4-0.6,0.8-0.8,1.3l0,0.1c-0.8,0.4-1,1.1-1,1.9l0,0.1c-0.3,0.3-0.5,0.7-0.8,1l-0.1,0.2
		c-1.3,0.9-1.8,2.3-2,3.8l0,0.1c-0.3,0.4-0.8,0.7-1,1.1c-16.2,32-25.3,65.6-22,101.8c-0.4,7.9,1.2,15.6,2.9,23.2
		c1.6,9.3,3.3,18.5,7.8,26.9c-0.3,1.9,0.3,3.6,0.9,5.4c5.6,14.5,12.2,28.6,21.1,41.4c1.4,2.4,2.8,4.8,4.3,7.1
		c-0.7,3.6-3.8,8.4,0.1,10.4c4.8,2.6,2.3,5.9,2.8,8.9c0.2,1.2-1,2-2,1.5c-2.4-1.1-5.1-1.5-7.1-3.5c-4.9-4.7-7.1-12.3-15-13.6
		c-0.3,0-0.6-0.4-0.7-0.7C896.3,645.3,893.6,644.9,890.6,645.2z"/>
	<path class="st2" d="M890.6,645.2c3-0.3,5.7,0.1,7.2,3.2c0.1,0.3,0.4,0.6,0.7,0.7c7.9,1.3,10.2,8.9,15,13.6c2.1,2,4.8,2.3,7.1,3.5
		c1,0.5,2.2-0.4,2-1.5c-0.5-3,1.9-6.4-2.8-8.9c-3.8-2.1-0.7-6.9-0.1-10.4c4.3,4.7,7.6,10.2,12.3,14.5c-0.1,0.2-0.1,0.4-0.1,0.6
		c-0.8,1.5-1.8,3.2,0.1,4.5c1.7,1.1,1.4,2.2,1.1,3.8c-0.3,1.6-0.4,3.5,2.2,1.5c1.2-0.9,2.3,0,3,0.9c0.8,1.1-0.4,1.8-0.9,2.5
		c-1.3,1.7-2.8,3.4-3.9,5.2c-1,1.6-0.8,3.3,0.8,4.4c1.4,1,2.5,1.4,4.3-0.3c2.6-2.5,4.9-1.5,5.4,2.1c0.2,1.5,0,2.9,1.3,4.2
		c5.3,5,10.7,9.3,18.5,5.2c0.8-0.4,1.7-0.7,2.1,0.4c0.4,0.9-0.2,1.6-1.2,1.8c-6,1.2-2.8,4.1-0.9,6.2c3.7,4.2,7.6,4,11.7-0.4
		c0.7-0.8,1.3-1.7,2.5-1.1c1.4,0.7,1.3,1.7,0.5,2.9c-1.9,3,0.3,4,2.5,4.5c1.7,0.4,3.7,0.4,5.4-0.4c1.4-0.6,2.2-0.2,3.2,1.2
		c2.6,3.6,5.6,6.9,10.5,7.5c1.3,0.1,1.9,1.1,2.4,2.3c2.6,6.4,7.3,7.7,12.8,3.1c3.7-3.1,7.1-2.1,10.2,0c3,2.1,5.1,1.9,7.4-0.6
		c1,0.1,2,0.3,3,0.4c0.5,0.2,1,0.4,1.5,0.6c1.7,0.1,3.4-0.1,5,0.2c17.1,2.9,33.2-0.9,48.9-7.6c15.9-6.8,28.8-18.8,44.7-25.9
		c1.6-0.4,3.2-0.9,4.8-1.4c12.8-3.9,25.6-4.1,38.5,0.3c5.3,1.8,10.1,7.2,15.3,5.7c5.3-1.5,9.7-6.4,14.4-9.7c1.1,0.3,1.5,2.7,3.2,1.3
		c1.2-1,1.1-2.3,0.5-3.7l0.1-0.1c2.1,0.2,3.5,3.4,5.6,1.9c1.9-1.3-0.7-3.6-0.2-5.5c0.2-0.6,0-1.3,0.1-2l0,0c2.3-0.2,4.5,0.1,5.5,2.4
		c1,2.4,0.8,4.8-1.2,6.9c-2,2.1-4.1,4.3-5.7,6.7c-3.7,5.4-2.4,10.6,1.4,15.4c-4.4,5.5-10.6,8.5-16.4,12.1
		c-30.6,18.7-63.8,29.3-99.5,31.5c-2,0.1-4,0.6-6,0.8c-8.7,0-17.5,0-26.2,0c-0.8-0.1-1.7-0.2-2.5-0.3
		c-69.7-4.2-125.1-34.6-166.5-90.8c-1.9-2.5-3.6-5.2-5.3-7.9c0-0.9-0.2-1.7-1.3-2C892.6,649.6,891.4,647.5,890.6,645.2z M913,670.7
		c-0.4,0.4-0.9,0.6-1,1c-0.1,0.4,0.1,1.1,0.3,1.2c0.7,0.4,1.2,0,1.2-0.8C913.5,671.7,913.2,671.3,913,670.7z M926.1,685.2
		c0.1-0.3,0.4-0.6,0.3-0.8c-0.1-0.2-0.5-0.3-0.8-0.4c-0.1,0.3-0.4,0.6-0.3,0.8C925.4,685,925.8,685.1,926.1,685.2z M925.4,676.2
		c-0.3-0.1-0.6-0.4-0.8-0.3s-0.3,0.5-0.4,0.8c0.3,0.1,0.6,0.4,0.8,0.3C925.3,676.9,925.3,676.5,925.4,676.2z"/>
	<path class="st2" d="M1307.5,542.2c-1.4-8.7-1.4-17.5,0-26.2C1308.1,524.8,1308,533.5,1307.5,542.2z"/>
	<path class="st1" d="M894.3,651.4c1,0.3,1.3,1.1,1.3,2C895.2,652.7,894.7,652,894.3,651.4z"/>
	<path class="st3" d="M1135.7,689.6c-15.8,7-28.8,19-44.7,25.9c-15.6,6.7-31.7,10.5-48.9,7.6c-1.6-0.3-3.3-0.2-5-0.2
		c-0.5-0.2-1-0.4-1.5-0.6c-1-0.1-2-0.3-3-0.4c-7.6-2.4-15.4-4.4-22.9-7.3c-30.5-11.5-56.6-29.4-77.9-54.2c0-0.2,0.1-0.4,0.1-0.6
		c17.5,0.2,32.7-5.9,46.6-16.1c7.2-5.3,15.2-8.9,24.4-9.8c14.6-1.3,26.8,3.8,38.2,12.4c10.2,7.8,21.9,12,34.8,13.1
		c19.1,1.7,35.7-4.4,50.6-15.8c17.4-13.3,42.6-13.7,59.7,0.4c13.6,11.1,29.3,15.7,46.6,16.2c-3.9,6.4-10.3,10.6-14.9,16.4l0,0
		c-2.1,1.5-4.3,3-5.4,5.5c0,0-0.1,0.1-0.1,0.1c-0.8,0.2-1.6,0.4-2.4,0.5c-5.3-3.9-11.4-6.2-17.5-8.5c-13.9-5.4-28-7.4-42.6-2.7
		C1140.6,674.6,1135.5,681,1135.7,689.6z"/>
	<path class="st4" d="M915.5,638.1c-8.9-12.9-15.5-26.9-21.1-41.4c-0.7-1.7-1.3-3.5-0.9-5.4c1.5,0.8,3,1.5,4.4,2.4
		c15.1,9.4,31.2,13.7,49,10c11.4-2.4,21.3-7.7,30.5-14.8c7.5-5.9,16-9.5,25.7-10.4c15.2-1.4,28.3,3.4,40.1,12.7
		c23.4,18.5,55.1,18.8,79.4-0.7c19.8-15.9,47.6-16.6,68.1,0c16.5,13.4,35.4,17.6,56.3,12.3c9.6-2.4,17.8-7.6,26.3-12.2
		c-4.8,16.5-12.8,31.4-21.7,46c-0.6,0.9-1.3,1.5-2.3,1.6c-11.7,3.1-23.4,4.4-35.1,0.7c-8.8-2.8-16-8.4-23.5-13.5
		c-14.7-10-30.8-12.6-48-9.3c-11.7,2.3-21.2,9-30.6,15.7c-11.1,7.8-23.4,10.2-36.8,8.7c-12.6-1.4-22.5-8.3-32.5-15
		c-22.4-14.8-48.2-14.7-70.3,0.5c-4.4,3-8.7,6.4-13.4,8.9C945,642.5,930.3,641.8,915.5,638.1z"/>
	<path class="st5" d="M1273.2,590.6c-8.5,4.6-16.8,9.8-26.3,12.2c-20.8,5.3-39.8,1.1-56.3-12.3c-20.5-16.6-48.2-15.9-68.1,0
		c-24.3,19.5-56.1,19.2-79.4,0.7c-11.8-9.3-24.9-14.2-40.1-12.7c-9.7,0.9-18.2,4.5-25.7,10.4c-9.1,7.1-19.1,12.4-30.5,14.8
		c-17.7,3.7-33.9-0.6-49-10c-1.4-0.9-2.9-1.6-4.4-2.4c-4.6-8.4-6.2-17.7-7.8-26.9c7.4,3.3,13.5,8.6,20.3,12.8
		c18.5,11.2,37.2,11.6,55.8,0.3c9.1-5.5,17.7-12,27.7-15.9l0,0c14.6-3.9,28.9-3.3,43,2.1l0-0.1c7.7,4.7,15.3,9.5,23.1,14.1
		c19.2,11.4,38.3,10.7,56.7-1.7c6.6-4.4,13.3-8.8,20.2-12.6l0,0c1.7-0.2,3.3-0.8,4.7-1.9l0.3,0c10-2.5,20-3.4,30.3-1.7
		c12,2,21.9,8.1,31.4,15.1c22,16.1,47.5,12.8,66.4-1.9c0.3-0.2,0.6-0.4,0.9-0.7c0.6,0,1-0.2,1.1-0.8l-0.1,0.1
		c0.8-0.1,1.5-0.3,1.9-1.2l0.1,0c0.4-0.3,0.8-0.6,1.2-0.8l-0.1,0.1c1.3-0.3,2.4-1,3.3-2.1c2.1-1,4.2-2.1,6.2-3.1
		C1278.6,573.5,1276.3,582.1,1273.2,590.6z"/>
	<path class="st6" d="M1154.9,347.2c0.2-0.1,0.4-0.1,0.6,0.1c0.6,3.3,3.3,1.7,5.1,2l0,0c2,3.6,5.3,4.3,9.1,4.1v0
		c0.3,2.8,2.4,1.9,4,2l0,0c0.3,2.8,2.4,1.9,4,2l0,0c1.9,4.4,5.9,5.3,10.1,6l0,0c0,2.3,1.5,2.2,3,2l0,0c1.4,2.5,1.2,4.4-0.8,6.8
		c-3.1,3.7-6.9,4.3-11.2,4.4c-4.4,0.1-9,0-11.7,4.2c-2,3.1-4.6,4-8,4c-7.2,0-14-3-21.3-2.2c-4.6,0.5-9.4,0.1-14.1,0.1
		c-1.5,0-3.3,0.2-4.1-1.3c-2.4-4.1-6.3-3.8-10.1-3.8c-3.2,0-6.3,0.1-9.5-0.7c-3.1-0.8-6.2-0.1-7,3.8c-0.5,2.1-2.1,2.4-3.4,1.8
		c-3.3-1.4-6.2-0.2-9.3,0.5c-4.4,1-8.6,1.7-11.6-2.9c-1.2-1.8-3-1.7-5-0.9c-4.3,1.7-9.4,2.5-7.6,9.2c0,0.1-0.2,0.2-0.4,0.3
		c-9.4,0.7-18.8-1.2-28.2-1c-0.3-2.7,0.2-5.6-2.9-7.2c-0.4-0.6-0.8-1.3-1.2-1.9c-0.6-0.4-1.3-0.7-1.9-1.1c-0.3-1-0.8-1.8-2-1.8
		c-5.5,0-10.9,0-16.4,0c-1.2,0-1.7,0.8-2,1.8c-1.7,0.5-4.3-0.9-5.1,2c-1.5,0.3-3.6-0.4-4,2.1c-4.9,1.2-9.5,6.2-10.1,11
		c-2.1,0-3.1,1-3,3.1c-0.6,0-1.3,0.1-1.9,0.1c-3.2-0.7-1.6-3.3-2-5c2.3-6.5,5-12.7,9.1-18.4c1.9-2.7,0.1-3.6-2.3-3.8
		c-2-0.2-3.8-0.6-3.7-3.1c0.2-2.4,2.5-3.9,4.1-3.6c2.9,0.6,4-1.1,5.4-2.7c0.8-0.9,1.3-2.2,2.7-1.4c1.1,0.6,0.6,1.7,0.3,2.7
		c-0.6,1.8,0.1,3.7,1.9,2.5c3.8-2.5,8.6-1.2,11.8-3.1c6.7-3.9,13-0.6,19.4-0.9c3.9-0.2,6.9,2.3,10.3,3.3c1.2,0.3,3.8,1.4,4-1.3
		c0.2-3.4-5-8.3-8.8-8.6c-1.7-0.1-3.4,0.2-5-0.1c-2.8-0.6-5.4-2.7-5.4-5.2c0-2.5,2.8-3.6,5.5-3.8c6.9-0.6,13.2-3.6,20.1-4.6
		c6.6-1,13.2-2.9,19.9-3.3c18-1,35.9,0.4,53.9,1.8l0-0.1c0,1.1,0.4,2,1.6,2.1c6.2,0.4,12.1,2.5,18.1,4c3.7,1,7.3,3.2,11.5,2.1l0,0
		C1150.2,348.9,1153,346.9,1154.9,347.2z"/>
	<path class="st0" d="M915.5,638.1c14.9,3.7,29.6,4.4,43.5-3.2c4.7-2.5,8.9-5.9,13.4-8.9c22.1-15.2,47.8-15.4,70.3-0.5
		c10.1,6.7,19.9,13.6,32.5,15c13.4,1.5,25.7-0.9,36.8-8.7c9.5-6.7,19-13.5,30.6-15.7c17.2-3.3,33.3-0.7,48,9.3
		c7.5,5.1,14.7,10.7,23.5,13.5c11.8,3.8,23.5,2.4,35.1-0.7c-3.7,8.6-9.7,15.5-16.2,22c-17.2-0.5-32.9-5-46.6-16.2
		c-17.2-14-42.3-13.6-59.7-0.4c-14.9,11.4-31.5,17.4-50.6,15.8c-12.9-1.1-24.6-5.3-34.8-13.1c-11.3-8.7-23.5-13.8-38.2-12.4
		c-9.2,0.8-17.2,4.5-24.4,9.8c-13.9,10.2-29.1,16.4-46.6,16.1c-4.7-4.3-8-9.8-12.3-14.5C918.3,642.9,916.9,640.5,915.5,638.1z"/>
	<path class="st7" d="M882.7,541.2c-3.3-36.2,5.8-69.8,22-101.8c0.2-0.4,0.6-0.7,1-1.1c0.1,5.4,3.6,9,7.1,6.6
		c5.4-3.7,9.8-2.6,15.1,1.8c0-2.9-0.2-4.8,0.1-6.5c0.3-2.3,1-4.4,4.1-3.6c-3.2,3.5-4.4,7.4-2.2,11.9c1.9,3.9,5.3,5.1,9.4,5
		c7.4-0.3,10.5-6.5,7.7-15.1c5.4,0.7,9-1.1,12.5-5.9c2.3-3.1,2.7-6.1,3.4-9.3c1.3,2.9,3.1,5.6,6.6,4.9c4-0.8,4.8-4.1,4.6-7.8
		c1.2,0.1,3.2,2,2.5-1.4c-0.9-4.5-0.2-9-0.4-13.5c-0.1-1.9,0.1-3.7,2.4-4.3c-1.4,6.1-1.3,12.2-0.1,18.4c0.6,3.4,2.1,4.6,5.6,4.8
		c18,0.8,31.9-5.7,40.3-22.3c0.5,3.9,3.1,5.3,6.6,5c6.8-0.5,7.7,0,10.7,7.2c0,0.7,0,1.3,0,2l0,0c-1.6,0.1-3.8-0.7-4,2.1l0,0
		c-1.5-0.1-3-0.2-3.1,2h0c-1.5-0.1-2.9,0-3,2l0,0c-1.5-0.1-3,0-3,2.1l0,0c-1-0.1-1.8,0.1-1.9,1.3l0.1-0.1c-1.3-0.1-1.9,0.7-2.3,1.8
		l0,0c-1,0-1.8,0.1-1.6,1.5l-0.1,0.1c-0.7-0.2-1.1,0.1-1.1,0.8l0.1-0.1c-1.3-0.1-2,0.7-2.3,1.9c-0.4,0.3-0.7,0.6-1.1,0.8
		c-0.9,0-1.6,0.2-1.9,1.2l0.1-0.1c-2.5,0.2-5.2-0.3-6.1,3l0,0c-2-0.1-4.2-0.6-5.1,2.1c-16.3,8.1-29.1,20.1-39.3,35.2
		c-1,0.5-1.1,1.3-1,2.3c0.2,0.3,0.1,0.5-0.1,0.8c-0.8,3.2-3,6.6,1.3,9.1l0,0.3c-1,4.2-2.3,4.7-6,2.5c-3.5-2.1-7.1-4.1-11.4-1.7
		c-4.2-6.8-7.4-14.2-13.2-19.9c-4.4-4.3-5.8-4.5-9.7,0.1c-10.2,11.8-16.3,25.5-18.4,41c-1.4,10.4,0.6,20.3,3.4,30.1
		c-4.6,0.7-9.2,1.5-13.9,1.2c-0.8,0-2.1,0.1-2.3,0.6c-2.6,5-6,3.5-9.6,1.5C884.5,541,883.5,541.2,882.7,541.2z"/>
	<path class="st8" d="M1041.7,414.1c-3-7.2-3.9-7.7-10.7-7.2c-3.5,0.3-6.1-1.1-6.6-5.1l0,0c2.9-0.2,1.9-2.4,2.1-4
		c1-3.3,3.1-6.5,1.1-10.1c9.4-0.2,18.7,1.7,28.2,1c5,5.1,12.3,5.4,18.1,8.9c0.4,0.3,1.4,0,1.9-0.3c3.6-2.1,7.4-2.3,11.5-1.6
		c2.6,0.4,5.4,0.6,7.9-0.5c5.7-2.3,11.9,0.4,17.7-1.3c1.5-0.4,2.8,0.9,4.2,1.5c5.4,2.2,10.7,4.8,16.7,4.4c5-0.4,9.4,1,13,4.2
		c6,5.5,12.9,4.4,19.8,3.4c2.5-0.4,5.7,0.5,7.4-2.3c2.3-3.8,5.7-3.5,9.3-2.7c5.4,1.2,10.4,0.5,15.7-1.3c4-1.4,6.2-5.4,11-5.5
		c5.4-0.1,10.7-1.1,16.1-1.8l0,0c0.3,0.3,0.7,0.7,1,1l0,0c0.3,0.3,0.7,0.7,1,1l0-0.1c0.3,0.4,0.7,0.7,1,1.1l0,0
		c0.4,0.4,0.7,0.7,1.1,1.1l-0.1-0.1c0.3,0.4,0.7,0.7,1,1.1l0,0c0.3,0.4,0.7,0.7,1,1.1l0,0c0.3,0.4,0.7,0.7,1,1.1l0,0
		c0.4,0.4,0.7,0.7,1.1,1.1c0.3,0.3,0.6,0.7,0.9,1c0,0.9,0.3,1.8,1.4,1.9c0.2,0.3,0.5,0.6,0.7,0.8c0.3,0.4,0.7,0.8,1,1.2l0,0
		c0.3,0.4,0.7,0.7,1,1.1l0,0c0.3,0.4,0.7,0.7,1,1.1l0,0c0,1.5,0,3,2.1,3l-0.1,0c0.3,0.4,0.6,0.7,0.9,1.1l0,0c0,1.5,0,2.9,2.1,3l0,0
		c0.3,0.4,0.6,0.7,1,1.1l0,0c0,1.5,0,3,2.1,3l0,0c-0.1,1.5-0.1,3,2.1,3l0,0c-0.1,1.5-0.1,3,2,3.1l0,0c0,0.9,0.1,1.6,1.1,2l0,0
		c0.3,0.4,0.6,0.7,0.9,1.1l0,0c0.2,1.6-0.7,3.8,2.2,3.9l0,0c0,1,0,2.1-0.1,3.1c-1.3,4.6-4.2,3.7-6.8,1.6c-2.2-1.7-4.1-4.2-6.9-4.8
		c-5.6-1.3-9.9-4.5-13.8-8.5c-2-2.1-4.4-3.2-6.8-0.4c-0.4,0-0.7,0-1.1,0.1c-0.6-0.7-1.3-1.3-1.9-2c-1.7-3.3-4.7-3-7.6-2.7
		c-5.6,0.6-9.6,4.1-13.5,7.7c-4.6-1.4-9.4-2.2-14.1-3.4c-2.8-0.7-5.9,0.3-8.3-1.5c-3.3-2.5-6.3-2.8-9.5-0.1c-1,0.8-2.2,0.6-3.3,1
		c-6.1,2-13,1.3-18.2,6c-1-2.6-1.8-5.4-3.2-7.7c-1.7-2.9-2.6-7-7.2-7.1l0.1,0.1c-0.1-1.2-0.9-1.4-1.8-1.3l0,0
		c-0.3-3.4-2.8-3.1-5.1-3l0,0c0-1.2-0.7-1.6-1.6-2.2c-10.7-6.1-22.6-6.1-34.3-6.9c-13-0.8-25.1,3.6-37.2,7.6
		c-1.4,0.5-4.2,0.7-4.3,3.5l0,0c-1.6,0.1-3.8-0.8-4.1,2l0,0C1044.4,414,1043,414.1,1041.7,414.1z"/>
	<path class="st9" d="M1226,393.8c-5.4,0.6-10.7,1.7-16.1,1.8c-4.7,0.1-7,4.1-11,5.5c-5.3,1.8-10.3,2.5-15.7,1.3
		c-3.5-0.8-6.9-1.1-9.3,2.7c-1.7,2.8-4.9,2-7.4,2.3c-6.9,1-13.8,2.1-19.8-3.4c-3.5-3.2-7.9-4.5-13-4.2c-5.9,0.4-11.3-2.2-16.7-4.4
		c-1.4-0.6-2.7-1.9-4.2-1.5c-5.8,1.8-11.9-1-17.7,1.3c-2.6,1.1-5.4,0.9-7.9,0.5c-4.1-0.7-7.9-0.4-11.5,1.6c-0.5,0.3-1.5,0.5-1.9,0.3
		c-5.8-3.5-13.2-3.7-18.1-8.9c0.1-0.1,0.4-0.3,0.4-0.3c-1.8-6.7,3.3-7.6,7.6-9.2c1.9-0.8,3.8-0.8,5,0.9c3.1,4.6,7.3,3.9,11.6,2.9
		c3-0.7,6-2,9.3-0.5c1.3,0.6,3,0.3,3.4-1.8c0.8-3.9,3.9-4.6,7-3.8c3.2,0.8,6.3,0.7,9.5,0.7c3.9,0,7.7-0.3,10.1,3.8
		c0.8,1.4,2.6,1.3,4.1,1.3c4.7,0,9.4,0.4,14.1-0.1c7.3-0.9,14.2,2.2,21.3,2.2c3.4,0,6-0.8,8-4c2.7-4.2,7.3-4,11.7-4.2
		c4.2-0.1,8.1-0.7,11.2-4.4c2-2.4,2.2-4.4,0.8-6.8C1203.9,373.2,1215.9,382.4,1226,393.8z"/>
	<path class="st10" d="M1274.3,473.6c0.1,0.2,0.2,0.5,0.2,0.7c0.7,2.4-2.1,5.8,2,7.3l-0.1,0c-1.1,4.5,0.9,8.5,2,12.6
		c1.9,7.4,2.6,14.6,1.1,22.2c-0.3,1.7,0.6,4,1.6,5.7c2.4,4,1,8.2,1.2,12.3c0.1,1.8-1.6,2.2-2.9,1.8c-2.8-0.9-4.2-4-7.4-4.7
		c-1.2-0.3-0.6-2.7-0.7-4.2c-0.3-4.2-3-5.5-6.4-3c-1.1,0.8-1.7,1.5-3.3,1.3c-5-0.6-9.9-0.8-14.9,0.4c-2.2,0.5-5.2,1.2-6.7-0.8
		c-2.8-3.7-6.4-3-10-3.1c-0.2-2.2,0.8-4.8-2.1-6l-0.1,0.1c-0.2-2.5,1.2-5.4-2-7.1v0c0.1-1.2,0.2-2.3-1.1-3l0,0
		c0.1-0.9-0.1-1.6-0.9-2.1l0,0c-0.1-1.6,0.6-3.6-1.9-4.1l0-0.1c-0.2-0.3-0.3-0.6-0.5-0.9c-0.2-0.3-0.4-0.7-0.6-1
		c0.1-1.5-0.6-2.5-2-3.1l0,0c0.1-1.1-0.4-1.9-1.6-2.1c-0.3-0.2-0.5-0.4-0.5-0.8c-0.3-0.4-0.7-0.7-1-1.1l0,0c0-1-0.2-1.8-1.5-1.6
		l0.3-0.2l-0.3,0.2c0.2-0.8-0.1-1.1-0.9-1c0.1-0.7-0.2-1.1-1-1.1l0.3-0.3l-0.3,0.3c0.1-0.7-0.3-1.1-1-1.1l0.1,0.1
		c0-1.4-0.7-2.1-2.1-2.1l0.1,0.1c0.1-1-0.5-1.3-1.4-1.4c-0.3-0.1-0.5-0.3-0.5-0.6c0-1.2,0.1-2.3,0.1-3.5l0,0c2,0.1,2.3-1.7,3.1-3
		c5.1,3.1,9.6,3,13.2-2.5c0.6-1,1.7-1.7,3.1-1.2c1.5,0.5,2.1,1.8,1.8,3.2c-0.8,4.7,2.1,5.9,5.7,6.3c3.1,0.3,6.7,1,9.4,0
		c3.5-1.3,8.6,0.2,10.3-3.6c1.7-3.9,4-4.2,7.4-4.1c3.5,0.2,7,0,10.6,0C1273,473.6,1273.7,473.6,1274.3,473.6z"/>
	<path class="st11" d="M882.7,541.2c0.8,0,1.8-0.2,2.5,0.2c3.6,2,7,3.5,9.6-1.5c0.3-0.5,1.5-0.7,2.3-0.6c4.7,0.3,9.3-0.5,13.9-1.2
		c11.3,16.6,21.5,18.9,35.8,8.1c0.1,1.8,0.1,3.7,0.2,5.5c0.2,4.6,2.5,7,6.7,5.5c3.9-1.4,7.9-1.1,11.7-2c5-1.2,7.7,0.7,9.6,4.8
		c0.8,1.7,2.3,3.3,3.8,2.3c3.6-2.4,7.1-0.3,10.6-0.6c-10,3.9-18.6,10.4-27.7,15.9c-18.6,11.3-37.3,10.9-55.8-0.3
		c-6.8-4.2-12.9-9.5-20.3-12.8C883.9,556.8,882.3,549.1,882.7,541.2z"/>
	<path class="st8" d="M962.8,423.1c-0.7,3.3-1.1,6.2-3.4,9.3c-3.5,4.7-7,6.6-12.5,5.9l0,0c-0.3-0.4-0.6-0.7-0.9-1.1
		c-0.4-0.3-0.7-0.7-1.1-1c-0.4-0.3-0.8-0.6-1.2-0.9l0.1,0.1c-3.2-4.2-6.5-4.5-8.9-0.9l0.1-0.1c-0.4,0.3-0.8,0.5-1.3,0.8l-0.2,0.2
		l-0.3-0.1c-0.7,0.1-1.3,0.4-1.4,1.2l0.1,0c-3.1-0.8-3.8,1.3-4.1,3.6c-0.2,1.8-0.1,3.6-0.1,6.5c-5.2-4.4-9.6-5.5-15.1-1.8
		c-3.6,2.4-7.1-1.1-7.1-6.6l0-0.1c2.6-0.3,1.8-2.3,2-3.8l0.1-0.2c0.3-0.3,0.5-0.7,0.8-1l0-0.1c0.9-0.4,1-1.1,1-1.9l0-0.1
		c0.3-0.4,0.6-0.8,0.8-1.3c7.2-11.4,14.3-22.9,23.7-32.8c1.1-1.2,2.4-2.2,3.7-3.3c7.6,4.3,14.9,1.3,20.5-3.2c6.3-5,11.2-6,16.7,0.1
		c0.4,1.8-1.2,4.4,2,5c0.5,1.7,1,3.3,1.4,5l0,0.1c-2.3,0.6-2.5,2.4-2.4,4.3c0.2,4.5-0.5,9,0.4,13.5c0.7,3.4-1.4,1.5-2.5,1.4l0,0
		c0.1-0.9-0.1-1.7-1-2.1l0,0.1c0-1.6-0.9-2.1-2.4-2c-3.4-0.4-6.4,0.2-7.8,3.9c-0.1,0.1-0.3,0.2-0.3,0.2c0,0.2,0.1,0.5,0.2,0.7
		C962.8,421.7,962.8,422.4,962.8,423.1z"/>
	<path class="st12" d="M1272.4,473.6c-3.5,0-7,0.1-10.6,0c-3.4-0.1-5.7,0.2-7.4,4.1c-1.7,3.8-6.8,2.3-10.3,3.6
		c-2.7,1.1-6.3,0.4-9.4,0c-3.6-0.4-6.5-1.6-5.7-6.3c0.2-1.4-0.3-2.7-1.8-3.2c-1.3-0.4-2.4,0.3-3.1,1.2c-3.5,5.5-8,5.6-13.2,2.5
		c-0.1-0.7-0.1-1.4-0.2-2.2l0,0.1c1.1-0.3,1.2-1.1,1.1-2.1l0,0c3.8-1.9,4.4-5.3,4.2-9l0,0c1.1-0.1,1.6-0.7,2.1-1.8
		c2.2-5.9,3.3-12.1,4.8-18.2c1.6-6.4,2.2-12.4-0.7-18.4c2.4-2.8,4.8-1.7,6.8,0.4c3.9,4,8.1,7.3,13.8,8.5c2.8,0.6,4.7,3.1,6.9,4.8
		c2.6,2,5.5,3,6.8-1.6c2.3,0.4,1.3,4.1,4.1,4l0,0c0.1,1.6-0.7,3.8,2.1,4.1l0,0c0,0.9,0.1,1.6,1,2.1l0,0c-0.1,2.9,0.2,5.5,3.1,7.1
		c0.8,0.5,0.9,1.2,0.9,2c-1.7,3.7,1,5.8,3.1,8v0C1269.2,467.2,1272.1,470.1,1272.4,473.6z"/>
	<path class="st13" d="M1230.1,522c3.6,0.1,7.2-0.6,10,3.1c1.5,2,4.5,1.3,6.7,0.8c5-1.2,10-1,14.9-0.4c1.6,0.2,2.3-0.4,3.3-1.3
		c3.3-2.5,6-1.1,6.4,3c0.1,1.5-0.6,3.9,0.7,4.2c3.2,0.7,4.6,3.7,7.4,4.7c1.3,0.4,3,0,2.9-1.8c-0.2-4.1,1.2-8.3-1.2-12.3
		c-1-1.7-1.9-3.9-1.6-5.7c1.5-7.5,0.8-14.8-1.1-22.2c-1.1-4.1-3.1-8.1-2-12.6c3.5,7.8,4.6,16.3,5.7,24.7c2.6,19.5,1.6,39-2.2,58.3
		c-2.1,1-4.2,2.1-6.2,3.1c-1.6-0.1-3.3-0.4-3.3,2.1l0.1-0.1c-0.4,0.3-0.8,0.6-1.2,0.8l-0.1,0c-0.8,0.1-1.6,0.3-1.9,1.2l0.1-0.1
		c-0.4,0.3-0.7,0.6-1.1,0.8c-0.3,0.2-0.6,0.4-0.9,0.7c0.3-5.1,0.3-10.3,1.1-15.4c0.5-3.1-0.5-3.4-3-3.3c-4,0.1-8,0-12,0
		c-1.5,0-3.6,0.2-3.9-1.5c-1.2-6.4-5.9-5.6-10.4-5.6c-5.5,0.1-9.7-3.8-10.4-9.4c0.1-0.7,0.2-1.4,1-1.7c2.5-0.1,2.2-2,2.2-3.6
		C1230.1,529,1230,525.5,1230.1,522z"/>
	<path class="st9" d="M975.2,390.8c-5.6-6.2-10.4-5.1-16.7-0.1c-5.6,4.4-12.9,7.5-20.5,3.2c15.8-18.2,35.6-30.8,57-41.1
		c19-9.2,39-15,59.8-18c14-2,28.3-2.5,42.5-0.7c7,0.9,14.2,0.9,21,3.2c-17.9-1.4-35.9-2.8-53.9-1.8c-6.7,0.4-13.3,2.3-19.9,3.3
		c-6.9,1-13.2,4-20.1,4.6c-2.7,0.2-5.6,1.3-5.5,3.8c0,2.5,2.6,4.6,5.4,5.2c1.6,0.3,3.4,0,5,0.1c3.7,0.3,9,5.2,8.8,8.6
		c-0.2,2.7-2.8,1.6-4,1.3c-3.5-0.9-6.4-3.4-10.3-3.3c-6.4,0.3-12.7-3-19.4,0.9c-3.2,1.9-8,0.6-11.8,3.1c-1.8,1.2-2.5-0.7-1.9-2.5
		c0.3-1,0.8-2.1-0.3-2.7c-1.4-0.8-2,0.6-2.7,1.4c-1.4,1.6-2.4,3.3-5.4,2.7c-1.6-0.3-3.9,1.2-4.1,3.6c-0.2,2.5,1.7,2.9,3.7,3.1
		c2.4,0.2,4.2,1.1,2.3,3.8C980.2,378.1,977.5,384.3,975.2,390.8z"/>
	<path class="st9" d="M1149.5,345.3c-4.1,1.1-7.7-1.1-11.5-2.1c-6-1.5-11.9-3.6-18.1-4c-1.3-0.1-1.6-1-1.6-2.1
		C1129.1,338.5,1139.5,341.1,1149.5,345.3z"/>
	<path class="st9" d="M1187.8,363.4c-4.2-0.6-8.2-1.5-10.1-6C1181.3,359.1,1184.9,360.6,1187.8,363.4z"/>
	<path class="st13" d="M1272.4,473.6c-0.3-3.5-3.1-6.4-1.9-10.1c2.4,3,2.9,6.7,3.9,10.1C1273.7,473.6,1273,473.6,1272.4,473.6z"/>
	<path class="st9" d="M1169.6,353.4c-3.7,0.2-7-0.4-9.1-4.1C1163.9,350.1,1167,351.3,1169.6,353.4z"/>
	<path class="st13" d="M1270.4,463.4c-2.1-2.3-4.7-4.3-3.1-8C1269.4,457.7,1270,460.5,1270.4,463.4z"/>
	<path class="st14" d="M1260.3,440.3c-2.7,0.1-1.8-3.6-4.1-4c0-1,0-2.1,0.1-3.1C1258.6,435,1259.5,437.6,1260.3,440.3z"/>
	<path class="st14" d="M1266.4,453.4c-2.9-1.5-3.2-4.2-3.1-7.1C1265.1,448.3,1266,450.7,1266.4,453.4z"/>
	<path class="st13" d="M1276.5,481.6c-4.2-1.4-1.3-4.8-2-7.3C1275.9,476.5,1276.4,479,1276.5,481.6z"/>
	<path class="st9" d="M1154.9,347.2c-1.9-0.3-4.7,1.7-5.4-2C1151.6,345.2,1153.4,345.9,1154.9,347.2z"/>
	<path class="st9" d="M1160.6,349.4c-1.8-0.3-4.4,1.3-5.1-2C1157.3,347.7,1159.1,348,1160.6,349.4z"/>
	<path class="st14" d="M1262.3,444.3c-2.8-0.3-1.9-2.4-2.1-4.1C1261.5,441.3,1262.1,442.7,1262.3,444.3z"/>
	<path class="st9" d="M1173.6,355.4c-1.6-0.1-3.7,0.8-4-2C1171.2,353.6,1172.6,354.2,1173.6,355.4z"/>
	<path class="st9" d="M1177.7,357.5c-1.6-0.2-3.7,0.8-4-2C1175.2,355.7,1176.6,356.2,1177.7,357.5z"/>
	<path class="st7" d="M907.8,434.4c-0.2,1.5,0.5,3.6-2,3.8C905.9,436.7,906.4,435.3,907.8,434.4z"/>
	<path class="st14" d="M1256.3,433.1c-2.8-0.2-1.9-2.3-2.2-3.9C1255.5,430.2,1256.1,431.5,1256.3,433.1z"/>
	<path class="st9" d="M1190.9,365.4c-1.5,0.2-3.1,0.2-3-2C1189.2,363.6,1190.2,364.2,1190.9,365.4z"/>
	<path class="st14" d="M1245.2,416c-2.1,0-2.1-1.5-2.1-3C1244.4,413.7,1245,414.7,1245.2,416z"/>
	<path class="st14" d="M1248.2,420.1c-2.1,0-2.1-1.5-2.1-3C1247.4,417.7,1248,418.7,1248.2,420.1z"/>
	<path class="st14" d="M1250.2,423.1c-2.1,0-2.1-1.5-2.1-3C1249.4,420.7,1250.1,421.7,1250.2,423.1z"/>
	<path class="st14" d="M1252.2,426.1c-2.1-0.1-2.1-1.5-2-3.1C1251.5,423.7,1252.1,424.8,1252.2,426.1z"/>
	<path class="st14" d="M1242.2,412c-2.1,0-2.1-1.5-2.1-3C1241.4,409.6,1242,410.6,1242.2,412z"/>
	<path class="st14" d="M1236.4,404.8c-1.1-0.2-1.3-1-1.4-1.9C1235.9,403.3,1236.2,404,1236.4,404.8z"/>
	<path class="st14" d="M1253.3,428.1c-0.9-0.4-1.1-1.2-1.1-2C1253.1,426.5,1253.3,427.3,1253.3,428.1z"/>
	<path class="st14" d="M1263.3,446.3c-0.9-0.4-1-1.2-1-2.1C1263.1,444.7,1263.3,445.5,1263.3,446.3z"/>
	<path class="st7" d="M909.7,431.2c0,0.8-0.2,1.5-1,1.9C908.7,432.3,908.9,431.6,909.7,431.2z"/>
	<path class="st14" d="M1238.2,406.9c-0.3-0.4-0.7-0.8-1-1.2C1237.5,406.1,1237.8,406.5,1238.2,406.9z"/>
	<path class="st9" d="M1227,394.8c-0.3-0.3-0.7-0.7-1-1C1226.4,394.1,1226.7,394.5,1227,394.8z"/>
	<path class="st14" d="M1254.2,429.2c-0.3-0.4-0.6-0.7-0.9-1.1C1253.6,428.5,1253.9,428.8,1254.2,429.2z"/>
	<path class="st9" d="M1228.1,395.8c-0.3-0.3-0.7-0.7-1-1C1227.4,395.1,1227.7,395.5,1228.1,395.8z"/>
	<path class="st14" d="M1229.1,396.8c-0.3-0.4-0.7-0.7-1-1.1C1228.4,396.1,1228.8,396.5,1229.1,396.8z"/>
	<path class="st14" d="M1230.1,397.8c-0.4-0.4-0.7-0.7-1.1-1.1C1229.4,397.1,1229.8,397.5,1230.1,397.8z"/>
	<path class="st14" d="M1231.1,398.8c-0.3-0.4-0.7-0.7-1-1.1C1230.4,398.1,1230.8,398.5,1231.1,398.8z"/>
	<path class="st14" d="M1233.1,400.9c-0.3-0.4-0.7-0.7-1-1.1C1232.4,400.2,1232.8,400.5,1233.1,400.9z"/>
	<path class="st14" d="M1234.2,401.9c-0.4-0.4-0.7-0.7-1.1-1.1C1233.4,401.2,1233.8,401.5,1234.2,401.9z"/>
	<path class="st14" d="M1232.1,399.9c-0.3-0.4-0.7-0.7-1-1.1C1231.4,399.2,1231.8,399.5,1232.1,399.9z"/>
	<path class="st7" d="M908.6,433.2c-0.3,0.3-0.5,0.7-0.8,1C908.1,433.9,908.4,433.5,908.6,433.2z"/>
	<path class="st14" d="M1246.1,417.1c-0.3-0.4-0.6-0.7-1-1.1C1245.5,416.4,1245.8,416.7,1246.1,417.1z"/>
	<path class="st14" d="M1243.1,413c-0.3-0.4-0.6-0.7-0.9-1.1C1242.5,412.3,1242.8,412.7,1243.1,413z"/>
	<path class="st14" d="M1240.1,409c-0.3-0.4-0.7-0.7-1-1.1C1239.5,408.3,1239.8,408.6,1240.1,409z"/>
	<path class="st7" d="M910.6,429.9c-0.3,0.4-0.6,0.8-0.8,1.3C910,430.8,910.3,430.3,910.6,429.9z"/>
	<path class="st14" d="M1239.1,408c-0.3-0.4-0.7-0.7-1-1.1C1238.5,407.2,1238.8,407.6,1239.1,408z"/>
	<path class="st0" d="M1135.7,689.6c-0.2-8.6,4.9-15,14.4-18.1c14.5-4.7,28.7-2.7,42.6,2.7c6,2.4,12.2,4.6,17.5,8.5
		c-0.5,0.6-0.9,1.2-1.4,1.8c-4.8,3.4-9.1,8.2-14.4,9.7c-5.3,1.5-10.1-3.9-15.3-5.7c-12.9-4.4-25.6-4.2-38.5-0.3
		C1138.9,688.7,1137.3,689.1,1135.7,689.6z"/>
	<path class="st1" d="M931.9,660.3c21.3,24.9,47.4,42.7,77.9,54.2c7.5,2.8,15.3,4.9,22.9,7.3c-2.3,2.5-4.4,2.6-7.4,0.6
		c-3.1-2.1-6.5-3-10.2,0c-5.5,4.6-10.2,3.2-12.8-3.1c-0.5-1.2-1.1-2.1-2.4-2.3c-4.9-0.5-7.9-3.9-10.5-7.5c-1-1.4-1.7-1.8-3.2-1.2
		c-1.8,0.7-3.7,0.8-5.4,0.4c-2.2-0.5-4.4-1.5-2.5-4.5c0.8-1.2,0.9-2.2-0.5-2.9c-1.2-0.6-1.8,0.3-2.5,1.1c-4.1,4.4-8,4.6-11.7,0.4
		c-1.9-2.1-5-5,0.9-6.2c1-0.2,1.5-0.9,1.2-1.8c-0.4-1.1-1.3-0.8-2.1-0.4c-7.8,4-13.2-0.2-18.5-5.2c-1.3-1.2-1.1-2.7-1.3-4.2
		c-0.5-3.6-2.8-4.6-5.4-2.1c-1.7,1.7-2.8,1.3-4.3,0.3c-1.7-1.2-1.8-2.9-0.8-4.4c1.1-1.8,2.6-3.5,3.9-5.2c0.6-0.8,1.7-1.5,0.9-2.5
		c-0.7-0.9-1.8-1.8-3-0.9c-2.6,2-2.6,0.1-2.2-1.5c0.3-1.6,0.6-2.7-1.1-3.8C930.1,663.5,931.1,661.8,931.9,660.3z"/>
	<path class="st1" d="M1212.6,682.1c1.2-2.5,3.3-4,5.4-5.5c0,0.7,0.1,1.3-0.1,2c-0.5,1.9,2.1,4.1,0.2,5.5
		C1216.1,685.5,1214.6,682.3,1212.6,682.1z"/>
	<path class="st1" d="M1208.7,684.5c0.5-0.6,0.9-1.2,1.4-1.8c0.8-0.2,1.6-0.3,2.4-0.5c0.5,1.3,0.7,2.7-0.5,3.7
		C1210.2,687.2,1209.8,684.8,1208.7,684.5z"/>
	<path class="st1" d="M913,670.7c0.3,0.6,0.6,1,0.6,1.4c0,0.7-0.5,1.2-1.2,0.8c-0.3-0.2-0.4-0.8-0.3-1.2
		C912.1,671.3,912.5,671.1,913,670.7z"/>
	<path class="st1" d="M926.1,685.2c-0.3-0.1-0.7-0.2-0.8-0.4s0.2-0.5,0.3-0.8c0.3,0.1,0.7,0.2,0.8,0.4
		C926.5,684.6,926.2,684.9,926.1,685.2z"/>
	<path class="st1" d="M925.4,676.2c-0.1,0.3-0.2,0.7-0.4,0.8c-0.2,0.1-0.5-0.2-0.8-0.3c0.1-0.3,0.2-0.7,0.4-0.8
		C924.8,675.8,925.2,676.1,925.4,676.2z"/>
	<path class="st1" d="M1035.7,722.2c0.5,0.2,1,0.4,1.5,0.6C1036.7,722.6,1036.2,722.4,1035.7,722.2z"/>
	<path class="st13" d="M989.4,561.6c-3.5,0.3-7-1.8-10.6,0.6c-1.5,1-3.1-0.6-3.8-2.3c-1.9-4.1-4.5-6-9.6-4.8
		c-3.8,0.9-7.8,0.6-11.7,2c-4.1,1.5-6.5-0.8-6.7-5.5c-0.1-1.8-0.1-3.7-0.2-5.5l0,0c0.9-0.2,1.2-0.9,1.3-1.8l0.1-0.1
		c0.3-0.3,0.6-0.7,0.8-1l0,0c0.3-0.4,0.6-0.8,0.9-1.2l-0.1,0.1c3-0.2,2-2.4,2.1-4.1l0,0c3.2-0.6,1.9-2.9,1.8-4.7
		c-0.4-0.5-0.2-0.9,0.2-1.3c3.7-1,1.4-4.1,2.1-6.1c3.6,2.2,7.3,1.8,11.4,1.2c5-0.7,6.3-5.7,10.3-7.4c4.2-1.8,5.8-4.6,3.1-9.3
		c-1-1.8-0.4-4.5-0.5-6.9c1.3,1,2.7,2.1,4,3.1c0.4,0.3,0.7,0.7,1.1,1l-0.1-0.1c0.4,0.3,0.8,0.7,1.2,1l-0.1-0.1
		c0.4,0.4,0.8,0.7,1.2,1.1l-0.1-0.1c0.1,0.7,0.5,1,1.2,1.1l-0.1-0.1c-0.4,2.4,1.3,2.3,2.8,2.3l0,0c0.4,0.3,0.8,0.7,1.2,1l-0.1-0.1
		c-0.1,2.9,1.7,3.3,4.1,3.1l-0.1-0.1c0.5,0.3,0.9,0.7,1.4,1c0.7,0.1,1.3,0.3,1.6,1.1c0.5,0.3,1,0.6,1.5,0.9l0.3,0l0.2,0.3
		c0.4,0.3,0.8,0.5,1.2,0.8l-0.1-0.1c0,2.4,1.5,2.2,3.2,2l0-0.1c-0.1,3.2,2.3,2.1,3.9,2.3l0,0c0.3,2.8,2.4,1.9,4,2.1l0,0
		c0.3,2.8,2.5,1.9,4.1,2l-0.1,0c0.4,3.4,3.2,1.7,4.9,2.2l0.1,0c0.5,2.7,2.6,1.8,4.2,1.8l-0.1-0.1c0.5,3.6,3.2,1.7,5,2.1l-0.1,0
		c0.5,1,1.4,1.1,2.3,1l0.4-0.1l0.3,0.3c0.4,0.3,0.9,0.5,1.3,0.8l0.4-0.1l0.3,0.2c0.9,3.5,3.7,1.6,5.7,1.9l0.4,0
		c0.1,0.5,0.1,1.3,0.4,1.4c4.1,1.7,7.8,3.8,10.6,7.5c1.5,2,3.9,1.6,6.2-0.2c3.3-2.5,7-3.9,11-1.2c1.4,0.9,2.9,0.8,4.3,0.4
		c5.3-1.4,10.4-3.9,16-3.9c1.2,0,1.7-0.9,1.8-2c1.6-1.2,3.3,0.2,5.2-0.6c8.2-3.3,16.5-6.1,24.7-9.2c10.6-4,19.5-10.9,29.1-16.5
		c0.4-0.3,0.9-0.6,1.3-1l0,0c0.4-0.3,0.7-0.6,1.1-0.9l0.1-0.1c0.9-0.1,1.6-0.3,1.8-1.3l-0.1,0.1c0.4-0.3,0.8-0.7,1.2-1l-0.1,0
		c2.6,0,5.2,0,7.7-0.1l0.2-0.1l0.2,0.2c0.6,1,1.5,1,2.5,0.9l0.4-0.1l0.2,0.3c0.5,0.8,1.3,0.9,2.1,0.9l0,0c0.4,3,2.5,1.9,4.2,1.9
		l0-0.1c0.1,3.3,2.4,2.1,4.1,2.1l-0.1-0.1c0.3,1.2,1.2,1.3,2.2,1.2c0.8,0,1.5,0.1,1.8,0.9c0.5,3.1,2.8,3.2,5.1,3.1l0,0
		c0.7,4.9,4.6,4.6,8.1,5.1l-0.1-0.1c0,2.4,1.5,2.2,3.2,2l0-0.1c-0.2,2.5,1.4,2.3,3.1,2.1l0,0c-0.3,1.3,0.2,2.2,1.3,3
		c1.2,0.9,3.9,0.9,3.1,3.2c-0.7,2-3,0.6-4.5,1.1c-2.3,0.8-6.4,0.1-6.5,2.6c-0.4,6.4-4.6,5.4-8.5,5.5c-1.7,0.1-3.7,0.4-3.9,2.4
		c-0.1,1.7,0.2,4.2,2.3,4.5c5.2,0.7,4.6,4.4,4.4,7.9c-0.1,1.5,0.9,4-1.6,3.9c-1.9,0-3.8-1.4-4.3-3.6c-0.2-0.8-0.1-1.7-0.2-2.5
		c-0.1-1.1-0.6-2-1.7-2.2c-1.2-0.2-1.7,0.7-2.1,1.7c-0.4,1.1,0.1,3.2-2.2,2.2c-9.2-3.8-18.8-3.8-28.4-3.2c-4.1,0.3-8.7,0.6-11.9,4.1
		l-0.3,0c-1.8,0.1-4.1-1.3-4.7,1.9l0,0c-3.1-0.8-5.5,0.9-8.1,2c-4.3,1.8-5.8-0.2-6.1-4.1c-0.1-0.8,0-1.7,0-2.5
		c-0.2-4.6-2.1-6.3-6.4-5.2c-2.3,0.6-4.6,0.7-7,0.6c-14.2-0.6-28.3-1.2-42.4-2c-7.5-0.5-12.5,3.6-17,8.7c-2.6,2.9-4.5,6.7-9.1,2.7
		c-0.8-0.7-2.6-0.1-3.9-0.1l0,0.1c0.1-0.9,0-1.7-1-2.1c-10.7-4.8-22-5.1-33.2-3.7C995.6,558.3,991,557.4,989.4,561.6L989.4,561.6z
		 M1038.4,544.6c-0.1-0.8-0.7-1.1-1.4-1.1c-0.7,0-1.2,0.5-1.2,1.2c0,1,0.6,1.5,1.6,1.3C1038.2,545.9,1038.4,545.3,1038.4,544.6z"/>
	<path class="st11" d="M1137.4,561.6c3.2-3.5,7.7-3.9,11.9-4.1c9.6-0.6,19.2-0.6,28.4,3.2c2.3,1,1.8-1.1,2.2-2.2
		c0.4-1,0.9-1.9,2.1-1.7c1.1,0.2,1.6,1.1,1.7,2.2c0.1,0.8,0,1.7,0.2,2.5c0.5,2.2,2.4,3.6,4.3,3.6c2.6,0,1.6-2.5,1.6-3.9
		c0.2-3.5,0.8-7.2-4.4-7.9c-2.2-0.3-2.4-2.8-2.3-4.5c0.1-2,2.2-2.4,3.9-2.4c3.9-0.1,8.1,0.9,8.5-5.5c0.2-2.5,4.3-1.8,6.5-2.6
		c1.5-0.5,3.8,0.8,4.5-1.1c0.8-2.3-1.8-2.3-3.1-3.2c-1.1-0.8-1.6-1.7-1.3-3c4.1,2.6,8.2,5.1,12.3,7.7c4.3,2.8,8.5,2.6,12.5-0.7
		c0.7,5.6,4.9,9.5,10.4,9.4c4.5-0.1,9.2-0.8,10.4,5.6c0.3,1.7,2.4,1.5,3.9,1.5c4,0,8,0.1,12,0c2.4-0.1,3.5,0.2,3,3.3
		c-0.8,5-0.8,10.3-1.1,15.4c-18.9,14.7-44.5,18.1-66.4,1.9c-9.5-6.9-19.4-13.1-31.4-15.1C1157.4,558.2,1147.4,559.2,1137.4,561.6z"
		/>
	<path class="st11" d="M1032.4,563.6c1.3,0,3.2-0.6,3.9,0.1c4.6,3.9,6.6,0.2,9.1-2.7c4.5-5.1,9.5-9.2,17-8.7
		c14.1,0.8,28.3,1.4,42.4,2c2.3,0.1,4.6,0,7-0.6c4.3-1.1,6.2,0.6,6.4,5.2c0,0.8,0,1.7,0,2.5c0.3,3.9,1.8,5.9,6.1,4.1
		c2.6-1.1,5-2.8,8.1-2c-7,3.8-13.6,8.1-20.2,12.6c-18.4,12.4-37.5,13.1-56.7,1.7C1047.7,573.2,1040.1,568.4,1032.4,563.6z"/>
	<path class="st11" d="M989.4,561.6c1.6-4.2,6.2-3.3,8.9-3.7c11.2-1.4,22.5-1.2,33.2,3.7c0.9,0.4,1,1.2,1,2.1
		C1018.3,558.3,1004,557.7,989.4,561.6z"/>
	<path class="st11" d="M1132.4,563.5c0.6-3.1,2.9-1.8,4.7-1.9C1135.7,562.7,1134.1,563.3,1132.4,563.5z"/>
	<path class="st11" d="M1270.4,569.7c0-2.5,1.7-2.2,3.3-2.1C1272.9,568.7,1271.8,569.4,1270.4,569.7z"/>
	<path class="st11" d="M1267.3,571.6c0.3-0.9,1.1-1.1,1.9-1.2C1268.9,571.3,1268.2,571.6,1267.3,571.6z"/>
	<path class="st11" d="M1269.3,570.4c0.4-0.3,0.8-0.6,1.2-0.8C1270.1,569.9,1269.7,570.2,1269.3,570.4z"/>
	<path class="st11" d="M1266.3,572.4c0.4-0.3,0.7-0.6,1.1-0.8C1267.3,572.2,1266.9,572.4,1266.3,572.4z"/>
	<path class="st9" d="M982.1,392.7c0.6-4.9,5.2-9.8,10.1-11l0.3,0.3c-3.4,3.6-6.8,7.3-10.2,10.9L982.1,392.7z"/>
	<path class="st9" d="M1027.6,387.7c2,3.6-0.1,6.8-1.1,10.1c-0.3,0-0.5,0-0.8,0c1-5.8,0.9-11.6-1.2-17.2l0.1-0.1
		C1027.8,382.1,1027.3,385.1,1027.6,387.7z"/>
	<path class="st9" d="M1001.3,377.6c0.3-1,0.8-1.8,2-1.8c5.5,0,10.9,0,16.4,0c1.2,0,1.7,0.8,2,1.8l-0.2,0.2c-6.7-1.8-13.4-1-20,0.1
		L1001.3,377.6z"/>
	<path class="st9" d="M979.1,395.8c-0.2-2.1,0.9-3.1,3-3.1l0.2,0.2c-0.5,1.4-0.6,3.3-2.8,3.3C979.4,396,979.3,395.9,979.1,395.8z"/>
	<path class="st9" d="M996.2,379.6c0.8-2.9,3.3-1.5,5-2l0.2,0.2c-1.5,1.2-3.3,1.5-5.1,2L996.2,379.6z"/>
	<path class="st9" d="M992.2,381.6c0.4-2.5,2.5-1.8,4-2.1l0.2,0.2c-1.3,0.7-2.6,1.4-3.9,2.2L992.2,381.6z"/>
	<path class="st9" d="M978.6,400.8c-0.5-1.7-1-3.3-1.4-5c0.6,0,1.3-0.1,1.9-0.1c0.1,0.1,0.2,0.2,0.4,0.4
		C979.2,397.7,979.7,399.4,978.6,400.8z"/>
	<path class="st9" d="M1023.5,378.6c0.4,0.6,0.8,1.3,1.2,1.9l-0.1,0.1c-0.8-0.3-1.1-1-1.2-1.8
		C1023.3,378.9,1023.5,378.6,1023.5,378.6z"/>
	<path class="st9" d="M1021.6,377.5c0.6,0.4,1.3,0.7,1.9,1.1l-0.2,0.3c-0.8-0.1-1.5-0.4-1.8-1.2L1021.6,377.5z"/>
	<path class="st5" d="M1226.9,537.9c-4,3.3-8.1,3.5-12.5,0.7c-4.1-2.6-8.2-5.1-12.3-7.7l0,0c-0.8-1.1-1.8-1.8-3.1-2.1l0,0.1
		c-0.8-1.1-1.8-1.8-3.2-2l0.1,0.1c-2.3-2.3-5-4-8.1-5.1l0,0c-1.4-1.6-3.1-2.5-5.1-3.1c-0.4-0.8-1-0.9-1.8-0.9
		c-0.5-0.9-1.2-1.2-2.2-1.2c0,0,0.1,0.1,0.1,0.1c-1.1-1.2-2.5-1.8-4.1-2.1l0,0.1c-1.2-1.2-2.6-1.7-4.2-1.9l0,0
		c-0.5-0.9-1.2-1-2.1-0.9l-0.2-0.3l-0.4,0.1c-0.6-0.9-1.5-1-2.5-0.9l-0.2-0.2l-0.2,0.1c-2.6-1.3-5.2-2.8-7.7,0.1l0.1,0
		c-0.4,0.3-0.8,0.7-1.2,1l0.1-0.1c-0.8,0.2-1.5,0.4-1.8,1.3l-0.1,0.1c-0.4,0.3-0.7,0.6-1.1,0.9l0,0c-0.4,0.3-0.9,0.6-1.3,1
		c-9.7,5.6-18.6,12.5-29.1,16.5c-8.2,3.1-16.6,5.9-24.7,9.2c-1.9,0.8-3.6-0.6-5.2,0.6c-16.9,2.7-33.7,2.6-50.4-2.1l-0.4,0
		c-1.7-1.1-3.6-1.9-5.7-1.9l-0.3-0.2l-0.4,0.1c-0.4-0.3-0.9-0.5-1.3-0.8l-0.3-0.3l-0.4,0.1c-0.5-0.9-1.4-1-2.3-1l0.1,0
		c-1.7-0.7-3.4-1.4-5-2.1l0.1,0.1c-1.2-1.1-2.6-1.6-4.2-1.8l-0.1,0c-1.4-1.3-3.1-1.9-4.9-2.2l0.1,0c-1.1-1.2-2.5-1.7-4.1-2l0,0
		c-1.1-1.2-2.6-1.6-4-2.1l0,0c-1-1.2-2.4-1.8-3.9-2.3l0,0.1c-0.8-1.1-1.9-1.7-3.2-2l0.1,0.1c-0.4-0.3-0.8-0.5-1.2-0.8l-0.2-0.3
		l-0.3,0c-0.5-0.3-1-0.6-1.5-0.9c-0.2-0.8-0.8-1-1.6-1.1c-0.5-0.3-0.9-0.7-1.4-1l0.1,0.1c-1-1.5-2.3-2.6-4.1-3.1l0.1,0.1
		c-0.4-0.3-0.8-0.7-1.2-1l0,0c-0.6-1.2-1.6-1.9-2.8-2.3l0.1,0.1c-0.4-0.4-0.8-0.7-1.2-1.1l0.1,0.1c-0.4-0.4-0.8-0.7-1.2-1.1l0.1,0.1
		c-0.4-0.3-0.8-0.7-1.2-1l0.1,0.1c-0.4-0.3-0.7-0.7-1.1-1c-1.3-1-2.7-2.1-4-3.1c-4.8-5.8-10.1-11.2-13.9-17.8c0,0,0-0.3,0-0.3
		c-0.4-3-0.8-6.1-1.3-9.1c0.2-0.2,0.3-0.5,0.1-0.8c1-0.5,1.1-1.3,1-2.3c10.1-15.1,22.9-27.1,39.3-35.2c1.8-0.3,3.6-0.8,5.1-2.1l0,0
		c2.3-0.4,4.5-1.2,6.1-3l-0.1,0.1c0.9,0,1.6-0.2,1.9-1.2c0.4-0.3,0.7-0.6,1.1-0.8c1.1-0.2,1.9-0.9,2.3-1.9c0,0-0.1,0.1-0.1,0.1
		c0.4-0.3,0.8-0.5,1.1-0.8l0.1-0.1c0.5-0.5,1-1,1.6-1.5l0,0c1.2-0.1,1.9-0.8,2.3-1.8l-0.1,0.1c0.8-0.1,1.5-0.4,1.9-1.3l0,0
		c1.2-0.4,2.3-1,3-2.1l0,0c1.3-0.2,2.3-0.9,3-2h0c1.3-0.3,2.4-0.8,3.1-2l0,0c1.5-0.4,3-0.8,4-2.1l0,0c1.6-0.2,3-0.8,4-2l0,0
		c1.6-0.3,3.1-0.7,4.1-2l0,0c25.6-10.4,51.3-13.4,77.4-2l0,0c1.5,1.4,3.1,2.5,5.1,3l0,0c0.3,0.8,0.9,1.2,1.8,1.3l-0.1-0.1
		c3.8,4,6.5,8.7,8.3,14c1.1,3.3,2.3,6.6,4.6,9.3l0,0.1c2.3,5.3,4.8,10.6,6.2,16.3c0.9,3.4,2.9,4.3,5.9,3.2c8-2.9,15.6-6.6,21.7-12.8
		l0,0c2.1-0.9,3.8-2.2,5-4.1l0,0c2.1-0.8,3.7-2.3,4.9-4.2l0.1,0c0.6,0,0.9-0.3,1-0.9c0.4-0.3,0.7-0.7,1.1-1c0.4-0.3,0.7-0.6,1.1-1
		l0,0c2-0.6,3.3-2,4.4-3.7l0.1,0c2.5-1.9,5.1-3.8,7.6-5.7c4-3.3,8.3-4,13.1-1.7c0.6,0.7,1.3,1.3,1.9,2c1.9,5.9,1.4,11.7,0.4,17.7
		c-1.2,7.1-3.7,13.7-5.4,20.6l0,0c-1.4,3-2.8,6-4.2,9l0,0c-0.9,0.4-1,1.2-1.1,2.1l0-0.1c-1.6,1.4-2.3,3.2-2.9,5.2l0,0
		c-1.3,1.1-1.7,2.2-0.1,3.5c0,0.3,0.2,0.5,0.5,0.6c0.1,0.8,0.6,1.2,1.4,1.4l-0.1-0.1c0.3,1,1.1,1.7,2.1,2.1l-0.1-0.1
		c0.3,0.4,0.7,0.7,1,1.1l0.3-0.3l-0.3,0.3c0.3,0.4,0.7,0.7,1,1.1c0.3,0.3,0.6,0.7,0.9,1l0.3-0.2l-0.3,0.2c0.5,0.5,1,1.1,1.5,1.6l0,0
		c0.3,0.4,0.7,0.7,1,1.1c0,0.4,0.2,0.6,0.5,0.8c0.2,0.9,0.6,1.7,1.6,2.1l0,0c0.3,1.3,0.8,2.4,2,3.1c0.2,0.3,0.4,0.7,0.6,1
		c0.2,0.3,0.3,0.6,0.5,0.9l0,0.1c0.2,1.6,0.8,2.9,1.9,4.1l0,0c-0.1,0.9,0.1,1.6,0.9,2.1l0,0c0,1.1,0.1,2.2,1.1,3v0
		c0.3,2.5,0.8,4.9,2,7.1l0.1-0.1c0.7,6.7,2.1,13.4-0.2,20.1C1227.1,536.4,1226.9,537.1,1226.9,537.9z M1132.8,451.1
		c0.4,0,0.8,0,1.1,0.1c-0.2-0.3-0.4-0.6-0.6-0.8c-1.8-4.5-3.5-9-5.4-13.5c-3.6-8-9.6-13.3-18.2-15.1c-25.7-5.6-48.7,0.3-69.3,16.2
		c-2.2,0.8-3.8,2.6-5.4,4.2c-3.4,2-6,5.4-10,6.6c-15.1,4.4-26.9,13.9-37.8,24.7c-5.1,5.1-5.5,6.9-0.6,12c9.7,10,20.7,18.5,32.9,25.4
		c2.4,1.3,4.8,1.9,7.7,1.5c11.5-1.7,19.4-10.3,22.2-24.6c0.1-1.4,0.3-2.9,0.4-4.3c0.8-0.8,0.7-1.7,0.4-2.6c0.1-0.2,0.1-0.3,0.2-0.4
		c0.1-0.1,0.3-0.3,0.4-0.3c1.3,0.6,1.5,1.9,1.8,3.1c4.2,14,3.5,26.9-9.5,36.6c2.2,2.1,4.7,2.7,7,3.4c12.9,3.8,26,4.2,39.2,1.4
		c19.6-4.2,37.2-12.9,53.1-25c7.1-5.4,14.7-6.9,23.1-6.1c16.7,3.9,31.6,11.5,45,22.4c-0.8-2.6-1.8-4.8-3.1-7
		c-4.9-8.5-11.5-15.6-18.4-22.6c-2.4-2.4-2.7-4.3-1-7.4c4.3-7.9,8.3-16.1,12.2-24.2c0.8-1.7,2.2-3.4,0.7-5.5c-1.9,0.3-2.7,2-3.8,3.1
		c-7.7,7.9-16.3,14.4-26.7,18.4c-9.7,3.7-19.6,4.2-29.4,0.3c-9.2-3.6-18.2-7.6-27.3-11.4c-0.6-0.3-1.2-0.7-1.8-0.9
		c-18.4-7-37.3-11.5-57.1-10.7c-0.5,0-3.6,1.9-1.8-1.5c8.6-2.8,17.4-4.8,26.5-5.4C1098.4,440,1115.8,444.9,1132.8,451.1z"/>
	<path class="st5" d="M954,532.1c-0.4,0.4-0.6,0.8-0.2,1.3c-1.2,1.4-1.6,3-1.8,4.7l0,0c-1.1,1.1-1.7,2.5-2.1,4.1l0.1-0.1
		c-0.3,0.4-0.6,0.8-0.9,1.2l0,0c-0.3,0.3-0.6,0.7-0.8,1l-0.1,0.1c-0.9,0.2-1.1,1-1.3,1.8l0,0c-14.3,10.9-24.5,8.6-35.8-8.1
		c-2.8-9.9-4.7-19.8-3.4-30.1c2-15.6,8.2-29.2,18.4-41c3.9-4.5,5.3-4.4,9.7-0.1c5.8,5.7,9,13.1,13.2,19.9c1.4,3.7,2.8,7.4,4.3,11.1
		c-0.2,0.9-0.2,1.9,0.7,2.5l-0.1,0.3l0.2,0.2c0,3,0.9,5.9,1.8,8.7l-0.2,0.2c0.1,4.1,0.2,8.1,0.2,12.2c-0.8,0.6-0.7,1.3-0.5,2.1
		C954.9,526.8,954.4,529.5,954,532.1z M931.6,538.2c10.7-12.5,9-32.9-1.5-46.4C921,506.3,921.6,525.3,931.6,538.2z"/>
	<path class="st5" d="M1021.5,377.7c0.4,0.8,1,1.1,1.8,1.2c0.1,0.8,0.5,1.5,1.2,1.8c2,5.6,2.1,11.4,1.2,17.2c-0.8,1.2-1.4,2.5-1.3,4
		l0,0c-8.4,16.6-22.2,23.1-40.3,22.3c-3.6-0.2-5-1.4-5.6-4.8c-1.2-6.2-1.3-12.3,0.1-18.4c0,0,0-0.1,0-0.1c1.1-1.4,0.6-3.1,0.9-4.7
		c2.2,0,2.3-1.8,2.8-3.3c3.4-3.6,6.8-7.3,10.2-10.9c1.3-0.7,2.6-1.4,3.9-2.2c1.8-0.5,3.6-0.8,5.1-2
		C1008.1,376.7,1014.8,375.9,1021.5,377.7z M1011.5,393.1c0.3-2.4-1.1-2.3-2.8-2.2c-8.2,0.5-15.8,7.6-17.1,15.9
		c-0.5,3,0.6,3.5,3.3,2.6c5-1.7,9.4-4.3,12.8-8.3C1009.6,398.8,1011.1,396.1,1011.5,393.1z"/>
	<path class="st10" d="M955.6,509.8l0.2-0.2c-0.3-3,1.7-6.4-1.8-8.7l-0.2-0.2l0.1-0.3c0.1-0.9,0.2-1.9-0.7-2.5
		c-1.4-3.7-2.8-7.4-4.3-11.1c4.2-2.4,7.9-0.4,11.4,1.7c3.7,2.2,4.9,1.8,6-2.5c3.8,6.6,9.1,12,13.9,17.8c0.1,2.3-0.5,5.1,0.5,6.9
		c2.7,4.7,1.1,7.5-3.1,9.3c-4,1.7-5.2,6.7-10.3,7.4c-4.1,0.6-7.7,1-11.4-1.2c-0.2-0.7-0.5-1.3-0.7-2c-0.2-0.8-0.2-1.6,0.5-2.1
		C959.7,517.9,957,513.8,955.6,509.8z"/>
	<path class="st5" d="M933.4,435.3l0.3,0.1l0.2-0.2c0.4-0.3,0.8-0.5,1.3-0.8c0,0-0.1,0.1-0.1,0.1c3-0.3,5.9,0.4,8.9,0.9l-0.1-0.1
		c0.4,0.3,0.8,0.6,1.2,0.9c0.4,0.3,0.7,0.7,1.1,1c0.3,0.4,0.6,0.7,0.9,1.1l0,0c2.8,8.6-0.3,14.8-7.7,15.1c-4.1,0.2-7.4-1-9.4-5
		c-2.2-4.5-1-8.4,2.2-11.9l-0.1,0C932.5,436.1,933,435.7,933.4,435.3z"/>
	<path class="st5" d="M962.8,423.1c0-0.7,0-1.4,0-2c0.1-0.3,0.1-0.6,0.2-1c1.4-3.7,4.3-4.3,7.8-3.9c0.8,0.7,1.6,1.3,2.4,2l0-0.1
		c0,0.8,0.2,1.6,1,2.1l0,0c0.2,3.7-0.6,6.9-4.6,7.8C965.9,428.7,964.1,426,962.8,423.1z"/>
	<path class="st14" d="M1016.6,433.3c-1.7,1.8-3.8,2.6-6.1,3C1011.4,433,1014.2,433.5,1016.6,433.3z"/>
	<path class="st10" d="M965.1,476.6c0.4,3,0.8,6.1,1.3,9.1C962,483.2,964.2,479.8,965.1,476.6z"/>
	<path class="st14" d="M1010.6,436.3c-1.5,1.3-3.2,1.8-5.1,2.1C1006.4,435.8,1008.5,436.2,1010.6,436.3z"/>
	<path class="st14" d="M1045.7,414c-1.1,1.2-2.5,1.8-4,2c0-0.7,0-1.3,0-2C1043,414.1,1044.4,414,1045.7,414z"/>
	<path class="st14" d="M1041.7,416.1c-1.1,1.3-2.5,1.7-4,2.1C1037.9,415.3,1040.1,416.2,1041.7,416.1z"/>
	<path class="st14" d="M1034.6,420.1c-0.7,1.1-1.7,1.8-3,2C1031.7,420.1,1033.1,420,1034.6,420.1z"/>
	<path class="st14" d="M1031.6,422.1c-0.7,1.1-1.8,1.7-3,2.1C1028.6,422.1,1030.1,422.1,1031.6,422.1z"/>
	<path class="st14" d="M1037.7,418.1c-0.7,1.1-1.8,1.7-3.1,2C1034.7,418,1036.2,418,1037.7,418.1z"/>
	<path class="st14" d="M1021.9,429.5c-0.4,1-1.2,1.7-2.3,1.9C1019.9,430.2,1020.5,429.4,1021.9,429.5z"/>
	<path class="st14" d="M1026.9,425.4c-0.4,1.1-1.2,1.7-2.3,1.8C1024.9,426.1,1025.6,425.3,1026.9,425.4z"/>
	<path class="st10" d="M966.2,473.6c0.1,0.9,0,1.8-1,2.3C965.1,474.9,965.2,474.1,966.2,473.6z"/>
	<path class="st14" d="M1024.6,427.2c-0.5,0.5-1,1-1.6,1.5C1022.8,427.3,1023.6,427.2,1024.6,427.2z"/>
	<path class="st14" d="M1028.7,424.2c-0.3,0.9-1,1.2-1.9,1.3C1026.9,424.3,1027.7,424.1,1028.7,424.2z"/>
	<path class="st14" d="M1018.5,432.2c-0.3,0.9-1.1,1.2-1.9,1.2C1016.9,432.4,1017.6,432.2,1018.5,432.2z"/>
	<path class="st14" d="M1022.9,428.7c-0.4,0.3-0.8,0.5-1.1,0.8C1021.9,428.8,1022.2,428.5,1022.9,428.7z"/>
	<path class="st12" d="M1192.8,434.2c-0.4,0.3-0.7,0.7-1.1,1c-0.3,0.3-0.7,0.6-1,0.9l-0.1,0c-2.8,0-4.6,1.2-4.9,4.2l0,0
		c-2.9-0.1-4.7,1-5,4.1l0,0c-1.2-0.2-2.3,0-3.3,0.7c-3.4,2.3-6.9,4.6-10.4,6.9c-3.9,2.6-7-4.6-11.1-0.9c-0.7,0.7-2-0.7-2.4-2
		c-0.7-2.2-1.1-4.6-2.3-6.4c-1.2-1.8-0.6-5.4-4.3-5.1l0-0.1c1.2-3.4-2.3-5.4-2.6-8.4c5.2-4.7,12.2-4,18.2-6c1.1-0.4,2.3-0.2,3.3-1
		c3.2-2.7,6.3-2.4,9.5,0.1c2.4,1.8,5.5,0.9,8.3,1.5c4.7,1.1,9.5,2,14.1,3.4c0.2,0.8,0.3,1.6,0.5,2.4l-0.1,0
		c-2.4,0.1-4.3,0.9-4.4,3.7l0,0C1193.5,433.6,1193.1,433.9,1192.8,434.2z"/>
	<path class="st14" d="M1127.2,410.1c-26.1-11.3-51.9-8.4-77.4,2c0-2.8,2.8-3,4.3-3.5c12.1-4,24.2-8.4,37.2-7.6
		c11.7,0.7,23.6,0.8,34.3,6.9C1126.6,408.5,1127.2,408.9,1127.2,410.1z"/>
	<path class="st14" d="M1215.9,462.5c1.7-6.9,4.1-13.6,5.4-20.6c1.1-6,1.6-11.8-0.4-17.7c0.4,0,0.7,0,1.1-0.1c2.9,6,2.3,12,0.7,18.4
		c-1.5,6.1-2.5,12.3-4.8,18.2C1217.5,461.8,1217,462.4,1215.9,462.5z"/>
	<path class="st14" d="M1198.3,429.6c-0.2-0.8-0.3-1.6-0.5-2.4c3.9-3.6,7.9-7.1,13.5-7.7c2.9-0.3,5.9-0.6,7.6,2.7
		c-4.7-2.3-9-1.5-13.1,1.7C1203.4,425.8,1200.9,427.7,1198.3,429.6z"/>
	<path class="st14" d="M1144.4,429.2c0.3,3,3.8,5,2.6,8.4c-2.3-2.7-3.5-6-4.6-9.3c-1.8-5.3-4.5-9.9-8.3-14c4.6,0.1,5.5,4.2,7.2,7.1
		C1142.6,423.8,1143.4,426.6,1144.4,429.2z"/>
	<path class="st14" d="M1132.3,413c-2-0.5-3.7-1.6-5.1-3C1129.5,410,1132,409.6,1132.3,413z"/>
	<path class="st7" d="M1024.4,401.8c0-1.5,0.6-2.8,1.3-4c0.3,0,0.5,0,0.8,0C1026.3,399.4,1027.3,401.7,1024.4,401.8z"/>
	<path class="st14" d="M1049.8,412.1c-1.1,1.3-2.6,1.7-4.1,2C1046.1,411.3,1048.2,412.2,1049.8,412.1z"/>
	<path class="st14" d="M1134.1,414.4c-0.8-0.1-1.5-0.5-1.8-1.3C1133.3,413,1134,413.2,1134.1,414.4z"/>
	<path class="st11" d="M1227.9,536.1c2.3-6.7,0.8-13.4,0.2-20.1c2.8,1.3,1.8,3.9,2.1,6c0,3.5,0,7,0,10.4
		C1230,534.1,1230.4,536,1227.9,536.1z"/>
	<path class="st14" d="M1207.8,478.6c0.6-1.9,1.3-3.8,2.9-5.2c0.1,0.7,0.1,1.4,0.2,2.2C1210.1,476.9,1209.9,478.6,1207.8,478.6z"/>
	<path class="st14" d="M1228,516.1c-1.2-2.2-1.7-4.6-2-7.1C1229.2,510.6,1227.8,513.6,1228,516.1z"/>
	<path class="st14" d="M1224,503.9c-1.1-1.1-1.7-2.5-1.9-4.1C1224.6,500.2,1223.9,502.2,1224,503.9z"/>
	<path class="st14" d="M1220.9,497.9c-1.2-0.7-1.7-1.8-2-3.1C1220.3,495.3,1221,496.4,1220.9,497.9z"/>
	<path class="st14" d="M1207.7,482c-1.5-1.2-1.2-2.4,0.1-3.5C1207.8,479.7,1207.7,480.9,1207.7,482z"/>
	<path class="st14" d="M1218.9,494.8c-0.9-0.4-1.4-1.2-1.6-2.1C1218.6,492.9,1219,493.7,1218.9,494.8z"/>
	<path class="st14" d="M1211.6,486c-1-0.4-1.7-1-2.1-2.1C1210.9,484,1211.6,484.7,1211.6,486z"/>
	<path class="st14" d="M1226,509c-1-0.8-1.1-1.9-1.1-3C1226.2,506.6,1226.1,507.8,1226,509z"/>
	<path class="st14" d="M1215.9,490.8c-0.5-0.5-1-1.1-1.5-1.6C1215.7,489,1215.9,489.8,1215.9,490.8z"/>
	<path class="st14" d="M1209.6,484c-0.8-0.2-1.3-0.6-1.4-1.4C1209.1,482.7,1209.7,483,1209.6,484z"/>
	<path class="st14" d="M1224.9,506c-0.8-0.5-1-1.2-0.9-2.1C1224.9,504.3,1225.1,505.1,1224.9,506z"/>
	<path class="st14" d="M1212.6,487.1c-0.3-0.4-0.7-0.7-1-1.1C1212.3,486,1212.6,486.4,1212.6,487.1z"/>
	<path class="st14" d="M1216.9,491.9c-0.3-0.4-0.7-0.8-1-1.1C1216.2,491.2,1216.6,491.5,1216.9,491.9z"/>
	<path class="st14" d="M1222,499.7c-0.2-0.3-0.3-0.6-0.5-0.9C1221.7,499.2,1221.9,499.4,1222,499.7z"/>
	<path class="st14" d="M1214.4,489.1c-0.3-0.3-0.6-0.7-0.9-1C1214.3,488.1,1214.6,488.4,1214.4,489.1z"/>
	<path class="st14" d="M1213.5,488.1c-0.3-0.4-0.7-0.7-1-1.1C1213.3,487,1213.6,487.4,1213.5,488.1z"/>
	<path class="st7" d="M943.9,435.4c-2.9-0.5-5.8-1.2-8.9-0.9C937.4,430.9,940.7,431.2,943.9,435.4z"/>
	<path class="st7" d="M973.1,418.2c-0.8-0.7-1.6-1.3-2.4-2C972.2,416,973.1,416.5,973.1,418.2z"/>
	<path class="st7" d="M974.1,420.2c-0.8-0.5-1-1.3-1-2.1C974,418.5,974.2,419.3,974.1,420.2z"/>
	<path class="st7" d="M962.9,420.1c-0.1,0.3-0.1,0.6-0.2,1c-0.1-0.2-0.2-0.5-0.2-0.7C962.6,420.3,962.8,420.2,962.9,420.1z"/>
	<path class="st7" d="M945,436.2c-0.4-0.3-0.8-0.6-1.2-0.9C944.2,435.6,944.6,435.9,945,436.2z"/>
	<path class="st7" d="M933.4,435.3c-0.5,0.4-1,0.8-1.4,1.2C932.2,435.8,932.7,435.4,933.4,435.3z"/>
	<path class="st7" d="M935.1,434.4c-0.4,0.3-0.8,0.5-1.3,0.8C934.3,434.9,934.7,434.6,935.1,434.4z"/>
	<path class="st7" d="M947,438.3c-0.3-0.4-0.6-0.7-0.9-1.1C946.4,437.6,946.7,437.9,947,438.3z"/>
	<path class="st14" d="M1211.8,471.5c1.4-3,2.8-6,4.2-9C1216.1,466.2,1215.6,469.6,1211.8,471.5z"/>
	<path class="st14" d="M1210.7,473.5c0-0.9,0.2-1.7,1.1-2.1C1211.9,472.4,1211.8,473.2,1210.7,473.5z"/>
	<path class="st11" d="M1042.7,539.1c16.6,4.7,33.4,4.8,50.4,2.1c-0.1,1.1-0.6,2-1.8,2c-5.7,0-10.7,2.5-16,3.9
		c-1.5,0.4-3,0.5-4.3-0.4c-4-2.7-7.7-1.3-11,1.2c-2.3,1.8-4.7,2.1-6.2,0.2c-2.8-3.7-6.5-5.8-10.6-7.5
		C1042.8,540.3,1042.8,539.5,1042.7,539.1z"/>
	<path class="st11" d="M1187.9,521.9c3.1,1.1,5.8,2.8,8.1,5.1C1192.5,526.5,1188.6,526.8,1187.9,521.9z"/>
	<path class="st11" d="M955.3,524.1c0.2,0.7,0.5,1.3,0.7,2c-0.7,2,1.6,5.1-2.1,6.1C954.4,529.5,954.9,526.8,955.3,524.1z"/>
	<path class="st11" d="M1182.8,518.9c2,0.5,3.8,1.5,5.1,3.1C1185.5,522,1183.2,521.9,1182.8,518.9z"/>
	<path class="st11" d="M1038.4,544.6c0,0.7-0.2,1.3-1,1.4c-1,0.2-1.6-0.3-1.6-1.3c0-0.7,0.5-1.2,1.2-1.2
		C1037.8,543.5,1038.3,543.8,1038.4,544.6z"/>
	<path class="st11" d="M1157.4,510.9c2.6-2.9,5.2-1.4,7.7-0.1C1162.6,510.8,1160,510.8,1157.4,510.9z"/>
	<path class="st11" d="M992.4,513.8c1.7,0.5,3.1,1.6,4.1,3.1C994.2,517.1,992.4,516.7,992.4,513.8z"/>
	<path class="st11" d="M1036.6,537.2c2.1,0,3.9,0.8,5.7,1.9C1040.3,538.7,1037.6,540.7,1036.6,537.2z"/>
	<path class="st11" d="M1026.7,533c1.7,0.7,3.4,1.4,5,2.1C1029.9,534.7,1027.1,536.6,1026.7,533z"/>
	<path class="st11" d="M1017.6,529c1.8,0.3,3.5,0.8,4.9,2.2C1020.7,530.7,1018,532.4,1017.6,529z"/>
	<path class="st11" d="M1174.8,514.7c1.6,0.3,3,0.9,4.1,2.1C1177.2,516.8,1174.9,518,1174.8,514.7z"/>
	<path class="st11" d="M1170.7,512.9c1.6,0.2,3.1,0.7,4.2,1.9C1173.2,514.8,1171,515.8,1170.7,512.9z"/>
	<path class="st11" d="M949.8,542.1c0.4-1.5,1-2.9,2.1-4.1C951.8,539.7,952.8,542,949.8,542.1z"/>
	<path class="st11" d="M951.9,538.1c0.2-1.7,0.7-3.4,1.8-4.7C953.8,535.2,955.1,537.6,951.9,538.1z"/>
	<path class="st11" d="M1022.5,531.2c1.6,0.2,3,0.7,4.2,1.8C1025.1,533,1023,533.9,1022.5,531.2z"/>
	<path class="st11" d="M1013.5,527c1.6,0.3,3,0.8,4.1,2C1016,528.9,1013.8,529.9,1013.5,527z"/>
	<path class="st11" d="M1009.5,525c1.5,0.4,3,0.9,4,2.1C1011.9,526.9,1009.7,527.8,1009.5,525z"/>
	<path class="st11" d="M1005.6,522.8c1.5,0.4,2.9,1,3.9,2.3C1007.9,524.8,1005.5,525.9,1005.6,522.8z"/>
	<path class="st11" d="M1195.9,526.9c1.3,0.2,2.4,0.9,3.2,2C1197.4,529.2,1195.9,529.3,1195.9,526.9z"/>
	<path class="st11" d="M988.5,510.6c1.2,0.4,2.2,1.1,2.8,2.3C989.8,512.9,988.2,513,988.5,510.6z"/>
	<path class="st11" d="M1002.5,520.9c1.3,0.3,2.4,0.8,3.2,2C1004,523.1,1002.5,523.2,1002.5,520.9z"/>
	<path class="st11" d="M1199,528.8c1.3,0.3,2.3,1,3.1,2.1C1200.4,531.2,1198.8,531.3,1199,528.8z"/>
	<path class="st11" d="M1165.6,510.9c1-0.1,1.8,0,2.5,0.9C1167,511.9,1166.1,511.9,1165.6,510.9z"/>
	<path class="st11" d="M1154.6,513c0.3-0.8,1-1.1,1.8-1.3C1156.2,512.7,1155.4,512.9,1154.6,513z"/>
	<path class="st11" d="M1168.6,512c0.9-0.1,1.6,0,2.1,0.9C1169.9,512.9,1169.1,512.8,1168.6,512z"/>
	<path class="st11" d="M1178.8,516.7c0.9,0.1,1.7,0.3,2.2,1.2C1180,518,1179.1,517.9,1178.8,516.7z"/>
	<path class="st11" d="M1031.6,535.1c0.9,0,1.8,0.1,2.3,1C1033,536.1,1032.1,536.1,1031.6,535.1z"/>
	<path class="st11" d="M946.7,546.2c0.2-0.8,0.3-1.6,1.3-1.8C947.9,545.2,947.7,546,946.7,546.2z"/>
	<path class="st11" d="M1152.1,514.9c0.4-0.3,0.9-0.6,1.3-1C1153,514.2,1152.6,514.5,1152.1,514.9z"/>
	<path class="st11" d="M996.4,516.9c0.5,0.3,0.9,0.7,1.4,1C997.3,517.5,996.9,517.2,996.4,516.9z"/>
	<path class="st11" d="M999.4,519c0.5,0.3,1,0.6,1.5,0.9C1000.4,519.6,999.9,519.3,999.4,519z"/>
	<path class="st11" d="M1001.4,520.1c0.4,0.3,0.8,0.5,1.2,0.8C1002.2,520.7,1001.8,520.4,1001.4,520.1z"/>
	<path class="st11" d="M1034.6,536.3c0.4,0.3,0.9,0.5,1.3,0.8C1035.5,536.8,1035.1,536.5,1034.6,536.3z"/>
	<path class="st11" d="M949,543.2c0.3-0.4,0.6-0.8,0.9-1.2C949.6,542.5,949.3,542.9,949,543.2z"/>
	<path class="st11" d="M984.3,506.9c0.4,0.3,0.7,0.7,1.1,1C985,507.5,984.6,507.2,984.3,506.9z"/>
	<path class="st11" d="M985.3,507.8c0.4,0.3,0.8,0.7,1.2,1C986.1,508.5,985.7,508.1,985.3,507.8z"/>
	<path class="st11" d="M986.4,508.7c0.4,0.4,0.8,0.7,1.2,1.1C987.1,509.4,986.8,509.1,986.4,508.7z"/>
	<path class="st11" d="M987.4,509.7c0.4,0.4,0.8,0.7,1.2,1.1C987.9,510.7,987.5,510.3,987.4,509.7z"/>
	<path class="st11" d="M1156.3,511.8c0.4-0.3,0.8-0.7,1.2-1C1157.1,511.2,1156.7,511.5,1156.3,511.8z"/>
	<path class="st11" d="M991.3,512.9c0.4,0.3,0.8,0.7,1.2,1C992.1,513.6,991.7,513.2,991.3,512.9z"/>
	<path class="st11" d="M1153.4,513.9c0.4-0.3,0.7-0.6,1.1-0.9C1154.1,513.3,1153.8,513.6,1153.4,513.9z"/>
	<path class="st11" d="M948.1,544.3c0.3-0.3,0.6-0.7,0.8-1C948.7,543.6,948.4,543.9,948.1,544.3z"/>
	<path class="st2" d="M1165.7,493.4c-8.4-0.8-16,0.7-23.1,6.1c-15.9,12-33.5,20.8-53.1,25c-13.1,2.8-26.2,2.4-39.2-1.4
		c-2.3-0.7-4.8-1.3-7-3.4c13-9.7,13.7-22.6,9.5-36.6c-0.3-1.2-0.5-2.5-1.8-3.1c-0.1,0-0.3,0.2-0.4,0.3c-0.1,0.1-0.2,0.3-0.2,0.4
		c-0.7,0.8-0.6,1.7-0.4,2.6c-0.1,1.4-0.3,2.9-0.4,4.3c-3.3-3-7-5.8-1.4-10.2c1.1-0.8,1.1-2.8,0-3.7c-3.1-2.8-2.1-6.4-2.5-9.8
		c-0.3-3.5,0-7.5-4.8-8.8c-1.6-0.5-2.4-2.1-1.4-4.1c3-5.9,2.5-6.8-4.4-9c1.6-1.6,3.2-3.3,5.4-4.2c1,3.1,4.8,4.8,3.7,9
		c-0.4,1.6,1.8,3.3,3.9,1.4c1.6-1.4,3.2-2.4,5.4-1.7c-1.8,3.4,1.3,1.5,1.8,1.5c19.9-0.8,38.7,3.6,57.1,10.7c0.6,0.2,1.2,0.6,1.8,0.9
		c-2.3,1.1-6.1,4.2-3.2,4.7c5.1,0.9,3.7,3.1,4,6c0.1,1.4,1.9,2,3.6,2.2c2,0.3,3.9,0.9,5.8,1.5c2.2,0.6,4.2,1.2,4,4.2
		c-0.2,3.1-2.4,4-4.7,4.2c-2.8,0.3-4.4,1-4.4,4.1c0,2.3-1.5,3.9-3.7,4c-2.9,0.1-4.3,1.1-4.3,4.2c0,2.3-1.5,3.9-3.8,3.9
		c-3.9,0-4.3,2.3-4.2,5.3c0,1.5-0.5,2.9-0.6,4.4c-0.2,1.7-1.3,4.4,0.8,4.8c1.9,0.4,5.2,0.4,5.9-2.5c1.7-6.5,7.5-6.4,12-6.7
		c4.8-0.3,5.7-2.1,5.2-6.1c-0.1-1.2,0-2.4,0-3.5c-0.2-2.9,0.6-4.8,4.1-4.8c3.6,0,4,2.1,4,4.9c0,1.7-1,4.7,1.2,4.7
		c2.5,0.1,5.9-1,7.3-2.9c3.7-4.9,8.3-6.3,14-5.8c1.6,0.1,3.4,0.2,5-0.2C1164.9,489.5,1165.4,491.2,1165.7,493.4z"/>
	<path class="st1" d="M1035.1,442.1c6.9,2.2,7.4,3.2,4.4,9c-1,2-0.3,3.6,1.4,4.1c4.8,1.3,4.5,5.3,4.8,8.8c0.3,3.4-0.7,7,2.5,9.8
		c1,0.9,1.1,2.8,0,3.7c-5.6,4.4-1.8,7.2,1.4,10.2c-2.8,14.3-10.7,22.9-22.2,24.6c-2.9,0.4-5.3-0.1-7.7-1.5
		c-12.2-6.9-23.2-15.4-32.9-25.4c-5-5.1-4.6-6.9,0.6-12c10.9-10.9,22.7-20.3,37.8-24.7C1029.1,447.5,1031.7,444.1,1035.1,442.1z
		 M1021.3,484.8c5.6,0,10.3-4.6,10.3-10.1c0-5.4-4.6-10-10.3-10.2c-5.5-0.1-10.6,4.6-10.7,9.9
		C1010.5,479.8,1015.6,484.8,1021.3,484.8z"/>
	<path class="st1" d="M1165.7,493.4c-0.3-2.2-0.8-3.9-3.8-3c-1.5,0.5-3.3,0.4-5,0.2c-5.7-0.5-10.3,0.9-14,5.8
		c-1.4,1.8-4.8,2.9-7.3,2.9c-2.3-0.1-1.2-3-1.2-4.7c-0.1-2.9-0.5-4.9-4-4.9c-3.5,0-4.3,1.9-4.1,4.8c0.1,1.2-0.1,2.4,0,3.5
		c0.5,4-0.4,5.8-5.2,6.1c-4.5,0.3-10.3,0.2-12,6.7c-0.7,2.8-4,2.9-5.9,2.5c-2.1-0.5-0.9-3.1-0.8-4.8c0.1-1.5,0.7-3,0.6-4.4
		c-0.1-3,0.4-5.3,4.2-5.3c2.3,0,3.8-1.6,3.8-3.9c0-3.1,1.5-4.1,4.3-4.2c2.3-0.1,3.7-1.7,3.7-4c0-3.1,1.6-3.9,4.4-4.1
		c2.3-0.2,4.5-1.1,4.7-4.2c0.2-3-1.9-3.6-4-4.2c-1.9-0.5-3.8-1.2-5.8-1.5c-1.6-0.2-3.5-0.8-3.6-2.2c-0.2-2.9,1.1-5.1-4-6
		c-2.9-0.5,0.9-3.7,3.2-4.7c9.1,3.8,18.1,7.8,27.3,11.4c9.8,3.8,19.7,3.4,29.4-0.3c10.3-3.9,19-10.5,26.7-18.4
		c1.1-1.1,1.9-2.8,3.8-3.1c1.5,2.1,0.1,3.8-0.7,5.5c-4,8.1-7.9,16.3-12.2,24.2c-1.7,3.1-1.4,5,1,7.4c6.8,6.9,13.4,14.1,18.4,22.6
		c1.2,2.1,2.3,4.4,3.1,7C1197.3,504.9,1182.4,497.3,1165.7,493.4z"/>
	<path class="st1" d="M1053.5,446.6c-2.2-0.7-3.8,0.3-5.4,1.7c-2.1,1.9-4.3,0.2-3.9-1.4c1.1-4.3-2.7-6-3.7-9
		c20.7-15.9,43.7-21.8,69.3-16.2c8.6,1.9,14.6,7.1,18.2,15.1c2,4.4,3.6,9,5.4,13.5c-0.2,0.2-0.4,0.5-0.6,0.8
		c-17.1-6.2-34.4-11.1-52.9-9.8C1070.8,441.9,1062.1,443.8,1053.5,446.6z"/>
	<path class="st14" d="M1147,437.7c3.7-0.3,3.1,3.3,4.3,5.1c1.2,1.8,1.6,4.3,2.3,6.4c0.4,1.2,1.7,2.6,2.4,2
		c4.2-3.8,7.2,3.4,11.1,0.9c3.5-2.3,6.9-4.6,10.4-6.9c1.1-0.7,2.1-0.8,3.3-0.7c-6.1,6.2-13.7,9.9-21.7,12.8c-3,1.1-5,0.3-5.9-3.2
		C1151.8,448.3,1149.3,443,1147,437.7z"/>
	<path class="st14" d="M1180.8,444.4c0.3-3.1,2.1-4.3,5-4.1C1184.6,442.3,1182.8,443.6,1180.8,444.4z"/>
	<path class="st14" d="M1185.8,440.3c0.3-3,2.1-4.1,4.9-4.2C1189.4,438,1187.9,439.5,1185.8,440.3z"/>
	<path class="st14" d="M1193.8,433.3c0.2-2.8,2-3.6,4.4-3.7C1197.1,431.2,1195.8,432.7,1193.8,433.3z"/>
	<path class="st1" d="M1049.9,483.4c-0.2-0.9-0.3-1.8,0.4-2.6C1050.7,481.7,1050.8,482.6,1049.9,483.4z"/>
	<path class="st1" d="M1133.4,450.3c0.2,0.3,0.4,0.6,0.6,0.8c-0.4,0-0.8,0-1.1-0.1C1133,450.8,1133.2,450.5,1133.4,450.3z"/>
	<path class="st14" d="M1190.7,436.1c0.3-0.3,0.7-0.6,1-0.9C1191.7,435.8,1191.3,436.1,1190.7,436.1z"/>
	<path class="st14" d="M1192.8,434.2c0.4-0.3,0.7-0.6,1.1-1C1193.5,433.6,1193.1,433.9,1192.8,434.2z"/>
	<path class="st10" d="M931.6,538.2c-10-12.9-10.5-31.8-1.5-46.4C940.5,505.3,942.3,525.7,931.6,538.2z"/>
	<path class="st11" d="M955.6,509.8c1.3,4,4.1,8.1,0.2,12.2C955.8,517.9,955.7,513.9,955.6,509.8z"/>
	<path class="st11" d="M954,500.8c3.5,2.3,1.5,5.8,1.8,8.7C954.9,506.7,954.1,503.9,954,500.8z"/>
	<path class="st11" d="M953.2,497.8c0.8,0.7,0.8,1.6,0.7,2.5C953,499.7,953,498.8,953.2,497.8z"/>
	<path class="st7" d="M1011.5,393.1c-0.4,3.1-1.8,5.7-3.8,8c-3.4,4.1-7.8,6.7-12.8,8.3c-2.7,0.9-3.8,0.4-3.3-2.6
		c1.4-8.4,8.9-15.4,17.1-15.9C1010.4,390.7,1011.8,390.7,1011.5,393.1z"/>
	<path class="st5" d="M1021.3,484.8c-5.7,0-10.8-5-10.7-10.4c0.1-5.3,5.2-10,10.7-9.9c5.7,0.1,10.3,4.7,10.3,10.2
		C1031.5,480.2,1026.8,484.8,1021.3,484.8z"/>
</g>
</svg>
